<svg width="287" height="55" viewBox="0 0 287 55" fill="none" xmlns="http://www.w3.org/2000/svg">
<g clip-path="url(#clip0_1_9489)">
<rect width="287" height="55" rx="8" fill="#1565D8"/>
<path d="M50.1338 31.4316C50.1338 32.5918 49.7148 33.5059 48.877 34.1738C48.0449 34.8418 46.8848 35.1758 45.3965 35.1758C44.0254 35.1758 42.8125 34.918 41.7578 34.4023V31.8711C42.625 32.2578 43.3574 32.5303 43.9551 32.6885C44.5586 32.8467 45.1094 32.9258 45.6074 32.9258C46.2051 32.9258 46.6621 32.8115 46.9785 32.583C47.3008 32.3545 47.4619 32.0146 47.4619 31.5635C47.4619 31.3115 47.3916 31.0889 47.251 30.8955C47.1104 30.6963 46.9023 30.5059 46.627 30.3242C46.3574 30.1426 45.8037 29.8525 44.9658 29.4541C44.1807 29.085 43.5918 28.7305 43.1992 28.3906C42.8066 28.0508 42.4932 27.6553 42.2588 27.2041C42.0244 26.7529 41.9072 26.2256 41.9072 25.6221C41.9072 24.4854 42.291 23.5918 43.0586 22.9414C43.832 22.291 44.8984 21.9658 46.2578 21.9658C46.9258 21.9658 47.5615 22.0449 48.165 22.2031C48.7744 22.3613 49.4102 22.584 50.0723 22.8711L49.1934 24.9893C48.5078 24.708 47.9395 24.5117 47.4883 24.4004C47.043 24.2891 46.6035 24.2334 46.1699 24.2334C45.6543 24.2334 45.2588 24.3535 44.9834 24.5938C44.708 24.834 44.5703 25.1475 44.5703 25.5342C44.5703 25.7744 44.626 25.9854 44.7373 26.167C44.8486 26.3428 45.0244 26.5156 45.2646 26.6855C45.5107 26.8496 46.0879 27.1484 46.9961 27.582C48.1973 28.1562 49.0205 28.7334 49.4658 29.3135C49.9111 29.8877 50.1338 30.5938 50.1338 31.4316ZM56.3916 33.04C56.8604 33.04 57.4229 32.9375 58.0791 32.7324V34.7275C57.4111 35.0264 56.5908 35.1758 55.6182 35.1758C54.5459 35.1758 53.7637 34.9062 53.2715 34.3672C52.7852 33.8223 52.542 33.0078 52.542 31.9238V27.1865H51.2588V26.0527L52.7354 25.1562L53.5088 23.082H55.2227V25.1738H57.9736V27.1865H55.2227V31.9238C55.2227 32.3047 55.3281 32.5859 55.5391 32.7676C55.7559 32.9492 56.04 33.04 56.3916 33.04ZM66.3145 35L65.7959 33.6641H65.7256C65.2744 34.2324 64.8086 34.6279 64.3281 34.8506C63.8535 35.0674 63.2324 35.1758 62.4648 35.1758C61.5215 35.1758 60.7773 34.9062 60.2324 34.3672C59.6934 33.8281 59.4238 33.0605 59.4238 32.0645C59.4238 31.0215 59.7871 30.2539 60.5137 29.7617C61.2461 29.2637 62.3477 28.9883 63.8184 28.9355L65.5234 28.8828V28.4521C65.5234 27.4561 65.0137 26.958 63.9941 26.958C63.209 26.958 62.2861 27.1953 61.2256 27.6699L60.3379 25.8594C61.4688 25.2676 62.7227 24.9717 64.0996 24.9717C65.418 24.9717 66.4287 25.2588 67.1318 25.833C67.835 26.4072 68.1865 27.2803 68.1865 28.4521V35H66.3145ZM65.5234 30.4473L64.4863 30.4824C63.707 30.5059 63.127 30.6465 62.7461 30.9043C62.3652 31.1621 62.1748 31.5547 62.1748 32.082C62.1748 32.8379 62.6084 33.2158 63.4756 33.2158C64.0967 33.2158 64.5918 33.0371 64.9609 32.6797C65.3359 32.3223 65.5234 31.8477 65.5234 31.2559V30.4473ZM76.4395 24.9893C76.8027 24.9893 77.1045 25.0156 77.3447 25.0684L77.1426 27.582C76.9258 27.5234 76.6621 27.4941 76.3516 27.4941C75.4961 27.4941 74.8281 27.7139 74.3477 28.1533C73.873 28.5928 73.6357 29.208 73.6357 29.999V35H70.9551V25.1738H72.9854L73.3809 26.8262H73.5127C73.8174 26.2754 74.2275 25.833 74.7432 25.499C75.2646 25.1592 75.8301 24.9893 76.4395 24.9893ZM83.2686 33.04C83.7373 33.04 84.2998 32.9375 84.9561 32.7324V34.7275C84.2881 35.0264 83.4678 35.1758 82.4951 35.1758C81.4229 35.1758 80.6406 34.9062 80.1484 34.3672C79.6621 33.8223 79.4189 33.0078 79.4189 31.9238V27.1865H78.1357V26.0527L79.6123 25.1562L80.3857 23.082H82.0996V25.1738H84.8506V27.1865H82.0996V31.9238C82.0996 32.3047 82.2051 32.5859 82.416 32.7676C82.6328 32.9492 82.917 33.04 83.2686 33.04ZM94.5625 28.1973H95.459C96.2969 28.1973 96.9238 28.0332 97.3398 27.7051C97.7559 27.3711 97.9639 26.8877 97.9639 26.2549C97.9639 25.6162 97.7881 25.1445 97.4365 24.8398C97.0908 24.5352 96.5459 24.3828 95.8018 24.3828H94.5625V28.1973ZM100.715 26.1582C100.715 27.541 100.281 28.5986 99.4141 29.3311C98.5527 30.0635 97.3252 30.4297 95.7314 30.4297H94.5625V35H91.8379V22.1504H95.9424C97.501 22.1504 98.6846 22.4873 99.4932 23.1611C100.308 23.8291 100.715 24.8281 100.715 26.1582ZM108.414 24.9893C108.777 24.9893 109.079 25.0156 109.319 25.0684L109.117 27.582C108.9 27.5234 108.637 27.4941 108.326 27.4941C107.471 27.4941 106.803 27.7139 106.322 28.1533C105.848 28.5928 105.61 29.208 105.61 29.999V35H102.93V25.1738H104.96L105.355 26.8262H105.487C105.792 26.2754 106.202 25.833 106.718 25.499C107.239 25.1592 107.805 24.9893 108.414 24.9893ZM113.239 30.0693C113.239 31.042 113.397 31.7773 113.714 32.2754C114.036 32.7734 114.558 33.0225 115.278 33.0225C115.993 33.0225 116.506 32.7764 116.816 32.2842C117.133 31.7861 117.291 31.0479 117.291 30.0693C117.291 29.0967 117.133 28.3672 116.816 27.8809C116.5 27.3945 115.981 27.1514 115.261 27.1514C114.546 27.1514 114.03 27.3945 113.714 27.8809C113.397 28.3613 113.239 29.0908 113.239 30.0693ZM120.033 30.0693C120.033 31.6689 119.611 32.9199 118.768 33.8223C117.924 34.7246 116.749 35.1758 115.243 35.1758C114.3 35.1758 113.468 34.9707 112.747 34.5605C112.026 34.1445 111.473 33.5498 111.086 32.7764C110.699 32.0029 110.506 31.1006 110.506 30.0693C110.506 28.4639 110.925 27.2158 111.763 26.3252C112.601 25.4346 113.778 24.9893 115.296 24.9893C116.239 24.9893 117.071 25.1943 117.792 25.6045C118.513 26.0146 119.066 26.6035 119.453 27.3711C119.84 28.1387 120.033 29.0381 120.033 30.0693ZM125.359 35.1758C124.205 35.1758 123.297 34.7275 122.635 33.8311C121.979 32.9346 121.65 31.6924 121.65 30.1045C121.65 28.4932 121.984 27.2393 122.652 26.3428C123.326 25.4404 124.252 24.9893 125.43 24.9893C126.666 24.9893 127.609 25.4697 128.26 26.4307H128.348C128.213 25.6982 128.146 25.0449 128.146 24.4707V21.3242H130.835V35H128.778L128.26 33.7256H128.146C127.536 34.6924 126.607 35.1758 125.359 35.1758ZM126.3 33.04C126.985 33.04 127.486 32.8408 127.803 32.4424C128.125 32.0439 128.301 31.3672 128.33 30.4121V30.1221C128.33 29.0674 128.166 28.3115 127.838 27.8545C127.516 27.3975 126.988 27.1689 126.256 27.1689C125.658 27.1689 125.192 27.4238 124.858 27.9336C124.53 28.4375 124.366 29.1729 124.366 30.1396C124.366 31.1064 124.533 31.833 124.867 32.3193C125.201 32.7998 125.679 33.04 126.3 33.04ZM140.6 35L140.239 33.7432H140.099C139.812 34.2002 139.404 34.5547 138.877 34.8066C138.35 35.0527 137.749 35.1758 137.075 35.1758C135.921 35.1758 135.051 34.8682 134.465 34.2529C133.879 33.6318 133.586 32.7412 133.586 31.5811V25.1738H136.267V30.9131C136.267 31.6221 136.393 32.1553 136.645 32.5127C136.896 32.8643 137.298 33.04 137.849 33.04C138.599 33.04 139.141 32.791 139.475 32.293C139.809 31.7891 139.976 30.957 139.976 29.7969V25.1738H142.656V35H140.6ZM149.459 35.1758C146.4 35.1758 144.871 33.4971 144.871 30.1396C144.871 28.4697 145.287 27.1953 146.119 26.3164C146.951 25.4316 148.144 24.9893 149.696 24.9893C150.833 24.9893 151.853 25.2119 152.755 25.6572L151.964 27.7314C151.542 27.5615 151.149 27.4238 150.786 27.3184C150.423 27.207 150.06 27.1514 149.696 27.1514C148.302 27.1514 147.604 28.1416 147.604 30.1221C147.604 32.0439 148.302 33.0049 149.696 33.0049C150.212 33.0049 150.689 32.9375 151.129 32.8027C151.568 32.6621 152.008 32.4453 152.447 32.1523V34.4463C152.014 34.7217 151.574 34.9121 151.129 35.0176C150.689 35.123 150.133 35.1758 149.459 35.1758ZM158.802 26.8965C158.233 26.8965 157.788 27.0781 157.466 27.4414C157.144 27.7988 156.959 28.3086 156.912 28.9707H160.674C160.662 28.3086 160.489 27.7988 160.155 27.4414C159.821 27.0781 159.37 26.8965 158.802 26.8965ZM159.18 35.1758C157.598 35.1758 156.361 34.7393 155.471 33.8662C154.58 32.9932 154.135 31.7568 154.135 30.1572C154.135 28.5107 154.545 27.2393 155.365 26.3428C156.191 25.4404 157.331 24.9893 158.784 24.9893C160.173 24.9893 161.254 25.3848 162.027 26.1758C162.801 26.9668 163.188 28.0596 163.188 29.4541V30.7549H156.851C156.88 31.5166 157.105 32.1113 157.527 32.5391C157.949 32.9668 158.541 33.1807 159.303 33.1807C159.895 33.1807 160.454 33.1191 160.981 32.9961C161.509 32.873 162.06 32.6768 162.634 32.4072V34.4814C162.165 34.7158 161.664 34.8887 161.131 35C160.598 35.1172 159.947 35.1758 159.18 35.1758ZM177.654 35H170.254V22.1504H177.654V24.3828H172.979V27.2041H177.329V29.4365H172.979V32.75H177.654V35ZM186.373 35L185.854 33.6641H185.784C185.333 34.2324 184.867 34.6279 184.387 34.8506C183.912 35.0674 183.291 35.1758 182.523 35.1758C181.58 35.1758 180.836 34.9062 180.291 34.3672C179.752 33.8281 179.482 33.0605 179.482 32.0645C179.482 31.0215 179.846 30.2539 180.572 29.7617C181.305 29.2637 182.406 28.9883 183.877 28.9355L185.582 28.8828V28.4521C185.582 27.4561 185.072 26.958 184.053 26.958C183.268 26.958 182.345 27.1953 181.284 27.6699L180.396 25.8594C181.527 25.2676 182.781 24.9717 184.158 24.9717C185.477 24.9717 186.487 25.2588 187.19 25.833C187.894 26.4072 188.245 27.2803 188.245 28.4521V35H186.373ZM185.582 30.4473L184.545 30.4824C183.766 30.5059 183.186 30.6465 182.805 30.9043C182.424 31.1621 182.233 31.5547 182.233 32.082C182.233 32.8379 182.667 33.2158 183.534 33.2158C184.155 33.2158 184.65 33.0371 185.02 32.6797C185.395 32.3223 185.582 31.8477 185.582 31.2559V30.4473ZM196.498 24.9893C196.861 24.9893 197.163 25.0156 197.403 25.0684L197.201 27.582C196.984 27.5234 196.721 27.4941 196.41 27.4941C195.555 27.4941 194.887 27.7139 194.406 28.1533C193.932 28.5928 193.694 29.208 193.694 29.999V35H191.014V25.1738H193.044L193.439 26.8262H193.571C193.876 26.2754 194.286 25.833 194.802 25.499C195.323 25.1592 195.889 24.9893 196.498 24.9893ZM208.258 35H205.577V29.2607C205.577 28.5518 205.451 28.0215 205.199 27.6699C204.947 27.3125 204.546 27.1338 203.995 27.1338C203.245 27.1338 202.703 27.3857 202.369 27.8896C202.035 28.3877 201.868 29.2168 201.868 30.377V35H199.188V25.1738H201.235L201.596 26.4307H201.745C202.044 25.9561 202.454 25.5986 202.976 25.3584C203.503 25.1123 204.101 24.9893 204.769 24.9893C205.911 24.9893 206.778 25.2998 207.37 25.9209C207.962 26.5361 208.258 27.4268 208.258 28.5928V35ZM210.903 22.6338C210.903 21.7607 211.39 21.3242 212.362 21.3242C213.335 21.3242 213.821 21.7607 213.821 22.6338C213.821 23.0498 213.698 23.375 213.452 23.6094C213.212 23.8379 212.849 23.9521 212.362 23.9521C211.39 23.9521 210.903 23.5127 210.903 22.6338ZM213.698 35H211.018V25.1738H213.698V35ZM225.59 35H222.909V29.2607C222.909 28.5518 222.783 28.0215 222.531 27.6699C222.279 27.3125 221.878 27.1338 221.327 27.1338C220.577 27.1338 220.035 27.3857 219.701 27.8896C219.367 28.3877 219.2 29.2168 219.2 30.377V35H216.52V25.1738H218.567L218.928 26.4307H219.077C219.376 25.9561 219.786 25.5986 220.308 25.3584C220.835 25.1123 221.433 24.9893 222.101 24.9893C223.243 24.9893 224.11 25.2998 224.702 25.9209C225.294 26.5361 225.59 27.4268 225.59 28.5928V35ZM236.901 25.1738V26.5361L235.363 26.9316C235.645 27.3711 235.785 27.8633 235.785 28.4082C235.785 29.4629 235.416 30.2861 234.678 30.8779C233.945 31.4639 232.926 31.7568 231.619 31.7568L231.136 31.7305L230.74 31.6865C230.465 31.8975 230.327 32.1318 230.327 32.3896C230.327 32.7764 230.819 32.9697 231.804 32.9697H233.474C234.552 32.9697 235.372 33.2012 235.935 33.6641C236.503 34.127 236.787 34.8066 236.787 35.7031C236.787 36.8516 236.307 37.7422 235.346 38.375C234.391 39.0078 233.017 39.3242 231.224 39.3242C229.853 39.3242 228.804 39.084 228.077 38.6035C227.356 38.1289 226.996 37.4609 226.996 36.5996C226.996 36.0078 227.181 35.5127 227.55 35.1143C227.919 34.7158 228.461 34.4316 229.176 34.2617C228.9 34.1445 228.66 33.9541 228.455 33.6904C228.25 33.4209 228.147 33.1367 228.147 32.8379C228.147 32.4629 228.256 32.1523 228.473 31.9062C228.689 31.6543 229.003 31.4082 229.413 31.168C228.897 30.9453 228.487 30.5879 228.183 30.0957C227.884 29.6035 227.734 29.0234 227.734 28.3555C227.734 27.2832 228.083 26.4541 228.78 25.8682C229.478 25.2822 230.474 24.9893 231.769 24.9893C232.044 24.9893 232.369 25.0156 232.744 25.0684C233.125 25.1152 233.368 25.1504 233.474 25.1738H236.901ZM229.316 36.3887C229.316 36.7578 229.492 37.0479 229.844 37.2588C230.201 37.4697 230.699 37.5752 231.338 37.5752C232.299 37.5752 233.052 37.4434 233.597 37.1797C234.142 36.916 234.414 36.5557 234.414 36.0986C234.414 35.7295 234.253 35.4746 233.931 35.334C233.608 35.1934 233.11 35.123 232.437 35.123H231.048C230.556 35.123 230.143 35.2373 229.809 35.4658C229.48 35.7002 229.316 36.0078 229.316 36.3887ZM230.292 28.3906C230.292 28.9238 230.412 29.3457 230.652 29.6562C230.898 29.9668 231.271 30.1221 231.769 30.1221C232.272 30.1221 232.642 29.9668 232.876 29.6562C233.11 29.3457 233.228 28.9238 233.228 28.3906C233.228 27.207 232.741 26.6152 231.769 26.6152C230.784 26.6152 230.292 27.207 230.292 28.3906ZM245.383 32.082C245.383 33.0898 245.031 33.8574 244.328 34.3848C243.631 34.9121 242.585 35.1758 241.19 35.1758C240.476 35.1758 239.866 35.126 239.362 35.0264C238.858 34.9326 238.387 34.792 237.947 34.6045V32.3896C238.445 32.624 239.005 32.8203 239.626 32.9785C240.253 33.1367 240.804 33.2158 241.278 33.2158C242.251 33.2158 242.737 32.9346 242.737 32.3721C242.737 32.1611 242.673 31.9912 242.544 31.8623C242.415 31.7275 242.192 31.5781 241.876 31.4141C241.56 31.2441 241.138 31.0479 240.61 30.8252C239.854 30.5088 239.298 30.2158 238.94 29.9463C238.589 29.6768 238.331 29.3691 238.167 29.0234C238.009 28.6719 237.93 28.2412 237.93 27.7314C237.93 26.8584 238.267 26.1846 238.94 25.71C239.62 25.2295 240.581 24.9893 241.823 24.9893C243.007 24.9893 244.158 25.2471 245.277 25.7627L244.469 27.6963C243.977 27.4854 243.517 27.3125 243.089 27.1777C242.661 27.043 242.225 26.9756 241.779 26.9756C240.988 26.9756 240.593 27.1895 240.593 27.6172C240.593 27.8574 240.719 28.0654 240.971 28.2412C241.229 28.417 241.788 28.6777 242.649 29.0234C243.417 29.334 243.979 29.624 244.337 29.8936C244.694 30.1631 244.958 30.4736 245.128 30.8252C245.298 31.1768 245.383 31.5957 245.383 32.082Z" fill="white"/>
</g>
<defs>
<clipPath id="clip0_1_9489">
<rect width="287" height="55" fill="white"/>
</clipPath>
</defs>
</svg>
