<svg width="104" height="104" viewBox="0 0 104 104" fill="none" xmlns="http://www.w3.org/2000/svg">
<g filter="url(#filter0_d_1_9519)">
<path fill-rule="evenodd" clip-rule="evenodd" d="M52 74C67.464 74 80 61.464 80 46C80 30.536 67.464 18 52 18C36.536 18 24 30.536 24 46C24 61.464 36.536 74 52 74Z" fill="white"/>
</g>
<path d="M60.96 32.56H63.52C64.5804 32.56 65.44 33.4196 65.44 34.48V57.52C65.44 58.5804 64.5804 59.44 63.52 59.44H60.96C59.8996 59.44 59.04 58.5804 59.04 57.52V34.48C59.04 33.4196 59.8996 32.56 60.96 32.56Z" fill="#44D5E9"/>
<path fill-rule="evenodd" clip-rule="evenodd" d="M53.28 40.24H50.72C49.6596 40.24 48.8 41.0996 48.8 42.16V57.52C48.8 58.5804 49.6596 59.44 50.72 59.44H53.28C54.3404 59.44 55.2 58.5804 55.2 57.52V42.16C55.2 41.0996 54.3404 40.24 53.28 40.24ZM43.04 47.92H40.48C39.4196 47.92 38.56 48.7796 38.56 49.84V57.52C38.56 58.5804 39.4196 59.44 40.48 59.44H43.04C44.1004 59.44 44.96 58.5804 44.96 57.52V49.84C44.96 48.7796 44.1004 47.92 43.04 47.92Z" fill="#3B5AFB"/>
<defs>
<filter id="filter0_d_1_9519" x="0" y="0" width="104" height="104" filterUnits="userSpaceOnUse" color-interpolation-filters="sRGB">
<feFlood flood-opacity="0" result="BackgroundImageFix"/>
<feColorMatrix in="SourceAlpha" type="matrix" values="0 0 0 0 0 0 0 0 0 0 0 0 0 0 0 0 0 0 127 0" result="hardAlpha"/>
<feOffset dy="6"/>
<feGaussianBlur stdDeviation="12"/>
<feColorMatrix type="matrix" values="0 0 0 0 0 0 0 0 0 0 0 0 0 0 0 0 0 0 0.04 0"/>
<feBlend mode="normal" in2="BackgroundImageFix" result="effect1_dropShadow_1_9519"/>
<feBlend mode="normal" in="SourceGraphic" in2="effect1_dropShadow_1_9519" result="shape"/>
</filter>
</defs>
</svg>
