<svg width="30" height="30" viewBox="0 0 30 30" fill="none" xmlns="http://www.w3.org/2000/svg">
<path fill-rule="evenodd" clip-rule="evenodd" d="M25.4914 4.4736L21.6608 8.30345C21.5569 8.19942 21.4317 8.11494 21.293 8.05778L15.3711 5.60479C15.093 5.49016 14.7809 5.49016 14.5029 5.60479L8.58093 8.05778C8.44227 8.11494 8.31734 8.19942 8.21317 8.30345L4.38257 4.4736C4.5469 4.31002 4.74197 4.17822 4.96063 4.08778L14.2559 0.237478C14.6921 0.0565828 15.182 0.0565828 15.6184 0.237478L24.9133 4.08778C25.132 4.17822 25.327 4.31002 25.4914 4.4736Z" fill="#FCB000"/>
<path fill-rule="evenodd" clip-rule="evenodd" d="M29.7267 15.7092L25.8772 25.0035C25.7869 25.222 25.655 25.4172 25.4914 25.5816C25.327 25.7452 25.132 25.8769 24.9133 25.9674L15.6184 29.8177C15.182 29.9984 14.6921 29.9984 14.2559 29.8177L4.96063 25.9674C4.74212 25.8769 4.5469 25.7452 4.38257 25.5816C4.21914 25.4172 4.08719 25.222 3.99675 25.0035L0.147195 15.7092C-0.0335517 15.2729 -0.0335517 14.7822 0.147195 14.3459L3.99675 5.05157C4.08719 4.83366 4.21914 4.63784 4.38257 4.47351L8.21316 8.30336C8.31734 8.19948 8.44242 8.115 8.58093 8.05769L14.5029 5.6047C14.7809 5.49008 15.093 5.49008 15.3711 5.6047L21.293 8.05769C21.4317 8.115 21.5569 8.19948 21.6608 8.30336L25.4914 4.47351C25.655 4.63784 25.7869 4.83366 25.8772 5.05157L29.7267 14.3459C29.9076 14.7822 29.9076 15.2729 29.7267 15.7092Z" fill="#3D6E6E"/>
<path fill-rule="evenodd" clip-rule="evenodd" d="M24.3594 15.4621L21.9065 21.3833C21.8493 21.5219 21.7656 21.647 21.6608 21.751C21.5569 21.8558 21.4317 21.9394 21.293 21.9975L15.3711 24.4504C15.093 24.5651 14.7809 24.5651 14.5029 24.4504L8.58094 21.9975C8.44228 21.9394 8.31736 21.8558 8.21318 21.751C8.10855 21.647 8.02497 21.5219 7.96766 21.3833L5.51452 15.4621C5.3993 15.184 5.3993 14.8713 5.51452 14.5931L7.96766 8.67193C8.02497 8.53253 8.10855 8.4082 8.21318 8.30358C8.31736 8.19955 8.44228 8.11507 8.58094 8.05775L14.5029 5.60477C14.7809 5.49014 15.093 5.49014 15.3711 5.60477L21.293 8.05775C21.4317 8.11507 21.5569 8.19955 21.6608 8.30358C21.7656 8.4082 21.8493 8.53253 21.9065 8.67193L24.3594 14.5931C24.4747 14.8713 24.4747 15.184 24.3594 15.4621Z" fill="white"/>
<path fill-rule="evenodd" clip-rule="evenodd" d="M19.388 10.1465L15.2412 8.42873C15.0464 8.34814 14.8276 8.34814 14.6331 8.42873L10.4859 10.1465C10.2913 10.2271 10.1367 10.3819 10.0561 10.5765L8.33832 14.7235C8.25757 14.9181 8.25757 15.1369 8.33832 15.3316L10.0561 19.4786C10.1367 19.6732 10.2913 19.828 10.4859 19.9086L14.6331 21.6263C14.8276 21.7069 15.0464 21.7069 15.2412 21.6263L19.388 19.9086C19.5828 19.828 19.7374 19.6732 19.818 19.4786L21.5358 15.3316C21.6165 15.1369 21.6165 14.9181 21.5358 14.7235L19.818 10.5765C19.7374 10.3819 19.5828 10.2271 19.388 10.1465Z" fill="#3F7070"/>
</svg>
