<svg width="351" height="129" viewBox="0 0 351 129" fill="none" xmlns="http://www.w3.org/2000/svg">
<rect x="0.5" y="0.5" width="350" height="128" rx="15.5" stroke="#ECEEF2"/>
<rect opacity="0.1" x="5" y="5" width="341" height="48" rx="16" fill="#B3BAC5"/>
<path d="M66.632 34L63.592 29.056C65 28.64 65.752 27.632 65.752 26.016C65.752 24.032 64.584 22.848 61.992 22.848H58.52V34H60.2V29.264H61.224H61.928L64.664 34H66.632ZM60.2 27.696V24.4H61.832C63.256 24.4 64.056 24.832 64.056 26.048C64.056 27.248 63.272 27.696 61.832 27.696H60.2ZM68.2655 24.576H69.9775V22.848H68.2655V24.576ZM68.3135 34H69.9295V26.112H68.3135V34ZM72.5204 37.264H74.1524V32.88C74.6324 33.648 75.5924 34.144 76.6164 34.144C78.5684 34.144 79.9444 32.592 79.9444 30.064C79.9444 27.712 78.7444 25.968 76.6164 25.968C75.6244 25.968 74.6804 26.384 74.1524 27.216V26.112H72.5204V37.264ZM76.2164 32.72C74.7444 32.72 74.0084 31.568 74.0084 30.048C74.0084 28.512 74.7444 27.392 76.2324 27.392C77.6244 27.392 78.3124 28.384 78.3124 30.048C78.3124 31.696 77.6084 32.72 76.2164 32.72ZM81.9147 37.264H83.5467V32.88C84.0267 33.648 84.9867 34.144 86.0107 34.144C87.9627 34.144 89.3387 32.592 89.3387 30.064C89.3387 27.712 88.1388 25.968 86.0107 25.968C85.0187 25.968 84.0747 26.384 83.5467 27.216V26.112H81.9147V37.264ZM85.6107 32.72C84.1387 32.72 83.4027 31.568 83.4027 30.048C83.4027 28.512 84.1387 27.392 85.6267 27.392C87.0187 27.392 87.7067 28.384 87.7067 30.048C87.7067 31.696 87.0027 32.72 85.6107 32.72ZM92.9571 34.144C93.3091 34.144 93.7251 34.064 94.1411 33.92V32.608C93.9011 32.688 93.6771 32.72 93.4851 32.72C93.0851 32.72 92.8611 32.528 92.8611 32.08V22.848H91.2291V32.192C91.2291 33.536 91.9491 34.144 92.9571 34.144ZM98.9957 34.144C100.308 34.144 101.284 33.712 102.164 32.752L101.028 31.76C100.436 32.432 99.7957 32.672 99.0117 32.672C97.6517 32.672 96.8997 31.856 96.8357 30.576H102.372C102.404 30.336 102.42 30.08 102.42 29.856C102.42 27.792 101.3 25.968 98.8677 25.968C96.3557 25.968 95.2037 27.968 95.2037 30.096C95.2037 32.256 96.3877 34.144 98.9957 34.144ZM96.8517 29.408C96.8357 28.352 97.5237 27.328 98.8517 27.328C100.036 27.328 100.74 28.064 100.852 29.072C100.868 29.184 100.868 29.312 100.852 29.408H96.8517Z" fill="#183B56"/>
<path fill-rule="evenodd" clip-rule="evenodd" d="M34.9936 17.119C28.3991 17.119 23.0533 22.4647 23.0533 29.0593C23.0533 35.6538 28.3991 40.9996 34.9936 40.9996C41.5881 40.9996 46.9339 35.6538 46.9339 29.0593C46.9339 22.4647 41.5881 17.119 34.9936 17.119Z" fill="#266BA6"/>
<path fill-rule="evenodd" clip-rule="evenodd" d="M34.9936 39.9941C28.9544 39.9941 24.0588 35.0984 24.0588 29.0593C24.0588 23.0201 28.9544 18.1245 34.9936 18.1245C41.0328 18.1245 45.9284 23.0201 45.9284 29.0593C45.9284 35.0984 41.0328 39.9941 34.9936 39.9941Z" fill="white"/>
<path fill-rule="evenodd" clip-rule="evenodd" d="M37.5726 30.3723C37.4086 30.3723 37.2474 30.3847 37.09 30.4085C36.6192 30.0077 36.2557 29.5097 36.2876 28.9379C36.3124 28.4923 36.5204 28.1211 36.8191 27.8141C37.0349 27.8598 37.2586 27.8843 37.4881 27.8843C39.2637 27.8843 40.7031 26.4448 40.7031 24.6691C40.7031 22.8935 39.2637 21.454 37.4881 21.454C35.7123 21.454 34.2729 22.8935 34.2729 24.6691C34.2729 25.4947 34.5843 26.2474 35.0957 26.8167C35.0249 27.2419 34.8698 27.6176 34.569 27.8137C34.2484 28.0228 33.6131 28.0557 32.9209 28.0096C32.4508 26.817 31.2892 25.9727 29.9296 25.9727C28.154 25.9727 26.7145 27.4121 26.7145 29.1878C26.7145 30.9635 28.154 32.403 29.9296 32.403C31.3918 32.403 32.6252 31.4265 33.0154 30.0903C33.5793 30.0042 34.088 30.0118 34.3575 30.2252C34.6998 30.4961 34.8736 31.0751 34.9539 31.7232C34.5788 32.2492 34.3575 32.8923 34.3575 33.5875C34.3575 35.3631 35.797 36.8026 37.5726 36.8026C39.3484 36.8026 40.7878 35.3631 40.7878 33.5875C40.7878 31.8118 39.3484 30.3723 37.5726 30.3723Z" fill="#2C71AE"/>
<g clip-path="url(#clip0_1_11768)">
<path d="M219.52 34H223.68C225.968 34 227.28 32.816 227.28 30.784C227.28 29.568 226.8 28.464 225.376 28.016C226.112 27.632 226.704 26.832 226.704 25.648C226.704 23.872 225.44 22.848 223.248 22.848H219.52V34ZM221.216 27.472V24.4H223.248C224.368 24.4 225.008 24.944 225.008 25.968C225.008 26.928 224.4 27.472 223.328 27.472H221.216ZM221.216 32.432V28.944H223.664C224.32 28.944 225.6 29.104 225.6 30.624C225.6 31.808 224.848 32.432 223.552 32.432H221.216ZM230 37.264H231.76L236.176 26.112H234.384L232.24 31.952L229.984 26.112H228.192L231.36 33.824L230 37.264ZM241.642 27.408V26.112H239.69V22.928L238.058 24.144V26.112H236.778V27.408H238.058V31.92C238.058 33.488 239.05 34.144 240.282 34.144C240.73 34.144 241.178 34.064 241.642 33.92V32.608C241.29 32.72 240.954 32.784 240.682 32.784C240.058 32.784 239.69 32.48 239.69 31.792V27.408H241.642ZM246.629 34.144C247.941 34.144 248.917 33.712 249.797 32.752L248.661 31.76C248.069 32.432 247.429 32.672 246.645 32.672C245.285 32.672 244.533 31.856 244.469 30.576H250.005C250.037 30.336 250.053 30.08 250.053 29.856C250.053 27.792 248.933 25.968 246.501 25.968C243.989 25.968 242.837 27.968 242.837 30.096C242.837 32.256 244.021 34.144 246.629 34.144ZM244.485 29.408C244.469 28.352 245.157 27.328 246.485 27.328C247.669 27.328 248.373 28.064 248.485 29.072C248.501 29.184 248.501 29.312 248.485 29.408H244.485ZM256.781 34.144C259.325 34.144 260.909 32.848 261.661 30.96L260.061 30.368C259.565 31.696 258.509 32.528 256.781 32.528C254.253 32.528 253.181 30.704 253.181 28.4C253.181 26.032 254.301 24.304 256.813 24.304C258.541 24.304 259.581 25.12 260.061 26.416L261.629 25.808C260.893 23.952 259.325 22.688 256.813 22.688C253.197 22.688 251.485 25.28 251.485 28.416C251.485 31.552 253.213 34.144 256.781 34.144ZM266.419 34.144C268.787 34.144 270.323 32.304 270.323 30.048C270.323 27.776 268.787 25.968 266.419 25.968C264.035 25.968 262.531 27.776 262.531 30.048C262.531 32.304 264.035 34.144 266.419 34.144ZM266.419 32.72C264.883 32.72 264.163 31.504 264.163 30.048C264.163 28.576 264.883 27.392 266.419 27.392C267.971 27.392 268.691 28.576 268.691 30.048C268.691 31.504 267.971 32.72 266.419 32.72ZM272.159 24.576H273.871V22.848H272.159V24.576ZM272.207 34H273.823V26.112H272.207V34ZM276.414 34H278.03V30.672C278.03 29.088 278.206 27.392 279.966 27.392C281.438 27.392 281.582 28.56 281.582 29.376V34H283.214V28.976C283.214 27.024 282.206 25.968 280.462 25.968C279.438 25.968 278.558 26.352 278.03 27.232V26.112H276.414V34Z" fill="#183B56"/>
<path fill-rule="evenodd" clip-rule="evenodd" d="M207.965 29.0221C207.965 35.6165 202.619 40.9624 196.025 40.9624C189.43 40.9624 184.085 35.6165 184.085 29.0221C184.085 22.4276 189.43 17.0818 196.025 17.0818C202.619 17.0818 207.965 22.4276 207.965 29.0221Z" fill="#EF4084"/>
<path fill-rule="evenodd" clip-rule="evenodd" d="M195.035 28.0618C196.278 28.0017 197.453 28.0088 198.61 27.8661C199.366 27.7728 199.739 27.1646 199.735 26.3988C199.731 25.6681 199.353 25.043 198.644 24.9609C197.453 24.823 196.246 24.8285 195.035 24.7732V28.0618ZM189.305 29.9851V28.0283H192.455V22.8975C192.667 22.8787 192.819 22.8538 192.971 22.8535C194.88 22.8515 196.789 22.8429 198.697 22.8612C199.151 22.8656 199.613 22.9212 200.054 23.0264C201.489 23.3686 202.313 24.3479 202.39 25.7453C202.47 27.1876 201.812 28.1406 200.368 28.677C200.333 28.6903 200.302 28.7169 200.203 28.7782C200.322 28.8135 200.396 28.8374 200.471 28.8576C201.786 29.2102 202.542 30.0618 202.719 31.4089C202.884 32.6702 202.255 33.9732 201.053 34.5105C200.274 34.8589 199.392 35.1025 198.543 35.1433C196.619 35.2359 194.687 35.1746 192.759 35.1738C192.683 35.1738 192.608 35.153 192.504 35.1376V31.6871H195V33.2274C196.341 33.1649 197.648 33.193 198.926 33.0133C199.773 32.8941 200.134 32.1325 200.028 31.2286C199.943 30.5104 199.45 30.0479 198.564 30.035C195.742 29.9938 192.918 29.9982 190.095 29.9853C189.842 29.9842 189.589 29.9851 189.305 29.9851Z" fill="white"/>
</g>
<path d="M151.324 23.72L146.573 19.769C146.369 19.5995 146.341 19.2969 146.511 19.0931C146.68 18.8892 146.983 18.8614 147.187 19.0309L152.947 23.8214C153.064 23.9186 153.122 24.0575 153.12 24.1958L153.12 24.2C153.12 24.3783 153.023 24.5339 152.878 24.6167L147.188 29.3684C146.984 29.5384 146.681 29.5111 146.512 29.3076C146.342 29.1042 146.369 28.8015 146.572 28.6315L151.305 24.68H135.36C135.095 24.68 134.88 24.4651 134.88 24.2C134.88 23.9349 135.095 23.72 135.36 23.72H151.324Z" fill="#5A7184"/>
<path d="M136.695 34.28L141.428 38.2316C141.631 38.4015 141.658 38.7042 141.488 38.9077C141.319 39.1112 141.016 39.1384 140.812 38.9685L135.146 34.2369C134.967 34.1564 134.878 33.9753 134.88 33.7951C134.879 33.7288 134.892 33.6624 134.919 33.6006C134.951 33.523 135.003 33.4539 135.074 33.4037L140.813 28.631C141.017 28.4615 141.32 28.4893 141.489 28.6931C141.659 28.8969 141.631 29.1996 141.427 29.3691L136.676 33.32H152.64C153.28 33.32 153.28 34.28 152.64 34.28H136.695Z" fill="#5A7184"/>
<g clip-path="url(#clip1_1_11768)">
<path d="M91.31 97.162C94.496 97.162 95.396 93.958 95.396 90.754C95.396 87.514 94.46 84.274 91.184 84.274C87.566 84.274 87.062 87.946 87.062 90.736C87.062 93.49 87.602 97.162 91.31 97.162ZM91.256 95.416C89.132 95.416 88.952 92.986 88.952 90.736C88.952 88.414 89.132 86.02 91.184 86.02C93.2 86.02 93.416 88.324 93.416 90.718C93.416 93.022 93.218 95.416 91.256 95.416ZM98.4758 97H100.33V94.786H98.4758V97ZM103.094 84.454V86.2H109.826L104.246 97H106.352L112.112 85.462V84.454H103.094ZM116.902 95.272C119.278 93.832 122.014 91.078 122.014 88.054C122.014 85.768 120.43 84.31 118.162 84.31C115.444 84.31 113.95 86.434 113.95 88.774L115.75 88.9C115.804 87.424 116.434 86.074 118.162 86.074C119.548 86.074 120.196 86.938 120.196 88.18C120.196 91.258 116.29 93.922 113.824 95.434V97H122.572V95.272H116.902ZM128.801 97.162C131.123 97.162 133.283 95.92 133.283 93.364C133.283 91.924 132.563 90.754 131.285 90.178C132.131 89.62 132.653 88.702 132.653 87.622C132.653 85.552 130.835 84.292 128.801 84.292C126.821 84.292 124.931 85.516 124.931 87.604C124.931 88.702 125.471 89.602 126.299 90.178C125.021 90.754 124.301 91.924 124.301 93.364C124.301 95.92 126.479 97.162 128.801 97.162ZM128.801 89.656C127.595 89.656 126.767 88.954 126.767 87.748C126.767 86.704 127.649 86.038 128.801 86.038C129.989 86.038 130.835 86.74 130.835 87.766C130.835 88.954 130.007 89.656 128.801 89.656ZM128.801 95.416C127.325 95.416 126.119 94.678 126.119 93.238C126.119 91.762 127.217 90.916 128.801 90.916C130.349 90.916 131.465 91.762 131.465 93.238C131.465 94.678 130.277 95.416 128.801 95.416ZM139.315 97.162C141.745 97.162 143.851 95.812 143.851 93.346C143.851 91.816 142.969 90.7 141.277 90.286C142.555 89.8 143.203 88.828 143.203 87.658C143.203 85.57 141.349 84.292 139.279 84.292C137.119 84.292 135.337 85.642 135.337 87.928L137.137 88.036C137.155 86.794 138.019 86.038 139.297 86.038C140.467 86.038 141.367 86.686 141.367 87.874C141.367 89.098 140.737 89.692 138.739 89.692V91.168C140.215 91.15 142.033 91.294 142.033 93.202C142.033 94.678 140.809 95.416 139.333 95.416C137.713 95.416 136.543 94.552 136.543 93.004L134.743 93.112C134.743 95.794 136.795 97.162 139.315 97.162ZM148.713 95.272C151.089 93.832 153.825 91.078 153.825 88.054C153.825 85.768 152.241 84.31 149.973 84.31C147.255 84.31 145.761 86.434 145.761 88.774L147.561 88.9C147.615 87.424 148.245 86.074 149.973 86.074C151.359 86.074 152.007 86.938 152.007 88.18C152.007 91.258 148.101 93.922 145.635 95.434V97H154.383V95.272H148.713ZM156.113 84.454V86.2H162.845L157.265 97H159.371L165.131 85.462V84.454H156.113ZM166.717 84.454V86.2H173.449L167.869 97H169.975L175.735 85.462V84.454H166.717ZM181.82 97.162C184.142 97.162 186.302 95.92 186.302 93.364C186.302 91.924 185.582 90.754 184.304 90.178C185.15 89.62 185.672 88.702 185.672 87.622C185.672 85.552 183.854 84.292 181.82 84.292C179.84 84.292 177.95 85.516 177.95 87.604C177.95 88.702 178.49 89.602 179.318 90.178C178.04 90.754 177.32 91.924 177.32 93.364C177.32 95.92 179.498 97.162 181.82 97.162ZM181.82 89.656C180.614 89.656 179.786 88.954 179.786 87.748C179.786 86.704 180.668 86.038 181.82 86.038C183.008 86.038 183.854 86.74 183.854 87.766C183.854 88.954 183.026 89.656 181.82 89.656ZM181.82 95.416C180.344 95.416 179.138 94.678 179.138 93.238C179.138 91.762 180.236 90.916 181.82 90.916C183.368 90.916 184.484 91.762 184.484 93.238C184.484 94.678 183.296 95.416 181.82 95.416Z" fill="#183B56"/>
<path d="M33.458 97L30.038 91.24C31.73 90.826 32.63 89.71 32.63 87.91C32.63 85.732 31.226 84.454 28.49 84.454H24.962V97H26.168V91.42H27.968C28.274 91.42 28.562 91.42 28.832 91.402L32.054 97H33.458ZM26.168 90.286V85.57H28.382C30.308 85.57 31.406 86.308 31.406 87.928C31.406 89.566 30.326 90.286 28.382 90.286H26.168ZM38.8631 87.982C37.3151 87.982 36.1811 88.576 35.2631 89.8L36.1091 90.502C36.8471 89.494 37.7111 89.026 38.8451 89.026C40.3571 89.026 41.2031 89.872 41.2031 91.474V91.852H38.7551C37.6751 91.852 36.7931 92.014 36.1451 92.338C35.3891 92.734 34.9571 93.4 34.9571 94.426C34.9571 96.154 36.3071 97.144 37.9991 97.144C39.3311 97.144 40.5371 96.514 41.2031 95.2L41.2931 97H42.3731V91.474C42.3731 89.152 40.9871 87.982 38.8631 87.982ZM38.1791 96.118C36.8831 96.118 36.1271 95.47 36.1271 94.444C36.1271 93.868 36.3611 93.454 36.7931 93.184C37.2791 92.86 38.0171 92.752 38.8991 92.752H41.2031V93.67C40.7891 95.128 39.7631 96.118 38.1791 96.118ZM49.0221 95.938C48.6261 96.082 48.2661 96.154 47.9781 96.154C47.2761 96.154 46.8801 95.758 46.8801 94.858V89.062H49.0221V88.126H46.8801V84.724L45.7101 85.606V88.126H44.2341V89.062H45.7101V94.948C45.7101 96.478 46.5381 97.144 47.7081 97.144C48.1221 97.144 48.5721 97.054 49.0401 96.892L49.0221 95.938ZM54.7337 97.144C56.1557 97.144 57.1457 96.694 58.1537 95.65L57.3257 94.93C56.5337 95.776 55.7957 96.064 54.7337 96.064C52.9517 96.064 51.8717 94.858 51.8357 92.878H58.3697C58.4057 92.662 58.4237 92.356 58.4237 92.104C58.4237 90.106 57.3077 87.982 54.5897 87.982C52.0337 87.982 50.6657 90.088 50.6657 92.608C50.6657 95.146 52.0517 97.144 54.7337 97.144ZM51.8357 92.032C51.8717 90.34 52.8977 88.972 54.5717 88.972C56.4077 88.972 57.2177 90.304 57.2897 91.582C57.2897 91.708 57.2897 91.888 57.2717 92.032H51.8357ZM61.5996 90.484H62.8776V88.522H61.5996V90.484ZM61.5996 97H62.8776V95.038H61.5996V97Z" fill="#183B56"/>
</g>
<defs>
<clipPath id="clip0_1_11768">
<rect width="101" height="24" fill="white" transform="translate(184 17)"/>
</clipPath>
<clipPath id="clip1_1_11768">
<rect width="165" height="24" fill="white" transform="translate(23 79)"/>
</clipPath>
</defs>
</svg>
