<svg width="351" height="129" viewBox="0 0 351 129" fill="none" xmlns="http://www.w3.org/2000/svg">
<rect x="0.5" y="0.5" width="350" height="128" rx="15.5" stroke="#ECEEF2"/>
<rect opacity="0.1" x="5" y="5" width="341" height="48" rx="16" fill="#B3BAC5"/>
<g clip-path="url(#clip0_1_11816)">
<path d="M58.52 34H62.68C64.968 34 66.28 32.816 66.28 30.784C66.28 29.568 65.8 28.464 64.376 28.016C65.112 27.632 65.704 26.832 65.704 25.648C65.704 23.872 64.44 22.848 62.248 22.848H58.52V34ZM60.216 27.472V24.4H62.248C63.368 24.4 64.008 24.944 64.008 25.968C64.008 26.928 63.4 27.472 62.328 27.472H60.216ZM60.216 32.432V28.944H62.664C63.32 28.944 64.6 29.104 64.6 30.624C64.6 31.808 63.848 32.432 62.552 32.432H60.216ZM68.3749 24.576H70.0869V22.848H68.3749V24.576ZM68.4229 34H70.0389V26.112H68.4229V34ZM76.5017 27.408V26.112H74.5497V22.928L72.9177 24.144V26.112H71.6377V27.408H72.9177V31.92C72.9177 33.488 73.9097 34.144 75.1417 34.144C75.5897 34.144 76.0377 34.064 76.5017 33.92V32.608C76.1497 32.72 75.8137 32.784 75.5417 32.784C74.9177 32.784 74.5497 32.48 74.5497 31.792V27.408H76.5017ZM81.4082 34.144C82.9442 34.144 84.1282 33.312 84.6402 31.872L83.1522 31.296C82.9123 32.176 82.2402 32.72 81.3922 32.72C79.9202 32.72 79.3442 31.456 79.3442 30.08C79.3442 28.704 79.9362 27.392 81.3922 27.392C82.2402 27.392 82.9123 27.952 83.1682 28.848L84.7203 28.224C84.1122 26.72 82.9123 25.968 81.3922 25.968C78.8802 25.968 77.6802 28 77.6802 30.08C77.6802 32.208 78.9282 34.144 81.4082 34.144ZM89.5556 34.144C91.9236 34.144 93.4596 32.304 93.4596 30.048C93.4596 27.776 91.9236 25.968 89.5556 25.968C87.1716 25.968 85.6676 27.776 85.6676 30.048C85.6676 32.304 87.1716 34.144 89.5556 34.144ZM89.5556 32.72C88.0196 32.72 87.2996 31.504 87.2996 30.048C87.2996 28.576 88.0196 27.392 89.5556 27.392C91.1076 27.392 91.8276 28.576 91.8276 30.048C91.8276 31.504 91.1076 32.72 89.5556 32.72ZM95.2961 24.576H97.0081V22.848H95.2961V24.576ZM95.3441 34H96.9601V26.112H95.3441V34ZM99.551 34H101.167V30.672C101.167 29.088 101.343 27.392 103.103 27.392C104.575 27.392 104.719 28.56 104.719 29.376V34H106.351V28.976C106.351 27.024 105.343 25.968 103.599 25.968C102.575 25.968 101.695 26.352 101.167 27.232V26.112H99.551V34Z" fill="#183B56"/>
<path fill-rule="evenodd" clip-rule="evenodd" d="M46.8981 29.0593C46.8981 35.6538 41.5523 40.9996 34.9578 40.9996C28.3632 40.9996 23.0175 35.6538 23.0175 29.0593C23.0175 22.4647 28.3632 17.119 34.9578 17.119C41.5523 17.119 46.8981 22.4647 46.8981 29.0593Z" fill="#F7931A"/>
<path fill-rule="evenodd" clip-rule="evenodd" d="M37.8568 32.5489C37.7569 32.8848 37.5321 33.1615 37.2238 33.3282C36.9155 33.4952 36.5608 33.5319 36.225 33.4319L32.8624 32.4304L33.6116 29.9155L36.9738 30.917H36.974C37.6672 31.1235 38.0634 31.8555 37.8568 32.5489ZM38.9909 27.3949C39.1576 27.7032 39.1944 28.0578 39.0944 28.3938C38.8879 29.0869 38.1555 29.4829 37.4626 29.2768H37.4624L34.1001 28.2753L34.849 25.7604L38.2115 26.7618C38.5473 26.8618 38.8241 27.0866 38.9909 27.3949ZM40.4961 26.5805C40.1118 25.8702 39.4738 25.352 38.6999 25.1215L38.255 24.9891L38.8778 22.8979L37.2799 22.422L36.6571 24.5132L35.2928 24.1069L35.9157 22.0156L35.5329 21.9016L33.9821 21.4398L33.3817 23.4555L31.4918 22.8927L30.9584 24.6837L32.8484 25.2467L30.9067 31.7658L29.0168 31.203L28.4835 32.9941L30.3733 33.5569L29.8666 35.2583L30.2493 35.3723L31.8001 35.8341L32.3293 34.0573L33.6968 34.4646L33.1676 36.2415L34.7592 36.7156L35.2884 34.9386L35.7364 35.072C36.022 35.157 36.3137 35.1992 36.6036 35.1992C37.0991 35.1992 37.59 35.0761 38.0381 34.8335C38.7484 34.4492 39.2665 33.8113 39.4971 33.0373C39.7395 32.223 39.6198 31.3866 39.2343 30.6981C39.9342 30.3329 40.4919 29.6968 40.7346 28.8823C40.9651 28.1082 40.8804 27.2907 40.4961 26.5805Z" fill="white"/>
</g>
<path d="M232.256 22.848L229.104 31.072L225.952 22.848H223.52V34H225.216V25.2L228.288 33.04H229.92L232.992 25.2V34H234.688V22.848H232.256ZM240.716 34.144C243.084 34.144 244.62 32.304 244.62 30.048C244.62 27.776 243.084 25.968 240.716 25.968C238.332 25.968 236.828 27.776 236.828 30.048C236.828 32.304 238.332 34.144 240.716 34.144ZM240.716 32.72C239.18 32.72 238.46 31.504 238.46 30.048C238.46 28.576 239.18 27.392 240.716 27.392C242.268 27.392 242.988 28.576 242.988 30.048C242.988 31.504 242.268 32.72 240.716 32.72ZM246.505 34H248.121V30.672C248.121 29.088 248.297 27.392 250.057 27.392C251.529 27.392 251.673 28.56 251.673 29.376V34H253.305V28.976C253.305 27.024 252.297 25.968 250.553 25.968C249.529 25.968 248.649 26.352 248.121 27.232V26.112H246.505V34ZM258.832 34.144C260.144 34.144 261.12 33.712 262 32.752L260.864 31.76C260.272 32.432 259.632 32.672 258.848 32.672C257.488 32.672 256.736 31.856 256.672 30.576H262.208C262.24 30.336 262.256 30.08 262.256 29.856C262.256 27.792 261.136 25.968 258.704 25.968C256.192 25.968 255.04 27.968 255.04 30.096C255.04 32.256 256.224 34.144 258.832 34.144ZM256.688 29.408C256.672 28.352 257.36 27.328 258.688 27.328C259.872 27.328 260.576 28.064 260.688 29.072C260.704 29.184 260.704 29.312 260.688 29.408H256.688ZM264.168 34H265.784V29.904C265.784 28.288 266.52 27.552 267.704 27.552C268.072 27.552 268.376 27.648 268.648 27.808L269.448 26.368C268.968 26.08 268.52 25.968 268.024 25.968C267.112 25.968 266.152 26.496 265.8 27.552V26.112H264.168V34ZM273.497 34.144C275.865 34.144 277.401 32.304 277.401 30.048C277.401 27.776 275.865 25.968 273.497 25.968C271.113 25.968 269.609 27.776 269.609 30.048C269.609 32.304 271.113 34.144 273.497 34.144ZM273.497 32.72C271.961 32.72 271.241 31.504 271.241 30.048C271.241 28.576 271.961 27.392 273.497 27.392C275.049 27.392 275.769 28.576 275.769 30.048C275.769 31.504 275.049 32.72 273.497 32.72Z" fill="#183B56"/>
<path fill-rule="evenodd" clip-rule="evenodd" d="M211.979 28.968C211.979 35.5625 206.633 40.9083 200.038 40.9083C193.444 40.9083 188.098 35.5625 188.098 28.968C188.098 22.3735 193.444 17.0277 200.038 17.0277C206.633 17.0277 211.979 22.3735 211.979 28.968Z" fill="white"/>
<path fill-rule="evenodd" clip-rule="evenodd" d="M210.199 35.2418C209.551 36.2901 208.745 37.2301 207.814 38.0296C207.76 38.076 207.706 38.1216 207.652 38.1662C206.997 38.7095 206.283 39.183 205.521 39.5767C205.398 39.6415 205.275 39.7031 205.149 39.7608C203.6 40.4975 201.867 40.9084 200.038 40.9084C198.17 40.9084 196.403 40.4793 194.828 39.7133C194.746 39.6748 194.665 39.6344 194.584 39.5919C193.821 39.2002 193.106 38.7277 192.449 38.1853C192.375 38.1256 192.302 38.064 192.231 38.0022C191.313 37.2089 190.518 36.2779 189.878 35.2418H194.828V28.884L198.29 32.3458L198.804 32.8598L200.061 34.1165L201.316 32.8598L201.831 32.3458L205.149 29.0267V35.2418H210.199Z" fill="#4C4C4C"/>
<path fill-rule="evenodd" clip-rule="evenodd" d="M211.979 28.968C211.979 30.3311 211.75 31.6404 211.329 32.8597H207.814V22.8208L205.149 25.4851L200.061 30.5749L192.231 22.7448V32.8597H188.748C188.327 31.6404 188.098 30.3311 188.098 28.968C188.098 26.9918 188.579 25.1279 189.43 23.4856C189.823 22.7237 190.297 22.0092 190.84 21.3545C191.263 20.8436 191.729 20.368 192.231 19.9339C193.014 19.2568 193.886 18.6792 194.828 18.2228C196.403 17.4567 198.17 17.0277 200.038 17.0277C201.867 17.0277 203.6 17.4386 205.149 18.1752C206.116 18.6326 207.011 19.2174 207.814 19.9065C208.336 20.3549 208.82 20.8477 209.256 21.3789C209.798 22.0356 210.271 22.7509 210.662 23.5139C211.504 25.1491 211.979 27.0029 211.979 28.968Z" fill="#FF6600"/>
<path d="M155.324 23.72L150.573 19.769C150.369 19.5995 150.341 19.2969 150.511 19.0931C150.68 18.8892 150.983 18.8614 151.187 19.0309L156.947 23.8214C157.064 23.9186 157.122 24.0575 157.12 24.1958L157.12 24.2C157.12 24.3783 157.023 24.5339 156.878 24.6167L151.188 29.3684C150.984 29.5384 150.681 29.5111 150.512 29.3076C150.342 29.1042 150.369 28.8015 150.572 28.6315L155.305 24.68H139.36C139.095 24.68 138.88 24.4651 138.88 24.2C138.88 23.9349 139.095 23.72 139.36 23.72H155.324Z" fill="#5A7184"/>
<path d="M140.695 34.28L145.428 38.2316C145.631 38.4015 145.658 38.7042 145.488 38.9077C145.319 39.1112 145.016 39.1384 144.812 38.9685L139.146 34.2369C138.967 34.1564 138.878 33.9753 138.88 33.7951C138.879 33.7288 138.892 33.6624 138.919 33.6006C138.951 33.523 139.003 33.4539 139.074 33.4037L144.813 28.631C145.017 28.4615 145.32 28.4893 145.489 28.6931C145.659 28.8969 145.631 29.1996 145.427 29.3691L140.676 33.32H156.64C157.28 33.32 157.28 34.28 156.64 34.28H140.695Z" fill="#5A7184"/>
<g clip-path="url(#clip1_1_11816)">
<path d="M91.22 84.454V85.318C91.22 86.11 90.77 86.434 89.96 86.434H88.142V87.892H91.148V97H92.984V84.454H91.22ZM101.734 97.162C104.164 97.162 106.27 95.812 106.27 93.346C106.27 91.816 105.388 90.7 103.696 90.286C104.974 89.8 105.622 88.828 105.622 87.658C105.622 85.57 103.768 84.292 101.698 84.292C99.5378 84.292 97.7558 85.642 97.7558 87.928L99.5558 88.036C99.5738 86.794 100.438 86.038 101.716 86.038C102.886 86.038 103.786 86.686 103.786 87.874C103.786 89.098 103.156 89.692 101.158 89.692V91.168C102.634 91.15 104.452 91.294 104.452 93.202C104.452 94.678 103.228 95.416 101.752 95.416C100.132 95.416 98.9618 94.552 98.9618 93.004L97.1618 93.112C97.1618 95.794 99.2138 97.162 101.734 97.162ZM115.326 92.284V84.454H113.688L107.478 92.914V94.03H113.49V97H115.326V94.03H117.342V92.284H115.326ZM109.926 92.284L113.49 87.28V92.284H109.926ZM119.683 97H121.537V94.786H119.683V97ZM129.053 88.45C128.351 88.45 127.577 88.63 126.821 89.188L127.379 86.2H132.671V84.454H125.867L124.679 91.006L126.443 91.456C126.929 90.718 127.703 90.178 128.801 90.178C130.475 90.178 131.303 91.33 131.303 92.662C131.303 94.066 130.403 95.416 128.711 95.416C127.163 95.416 126.263 94.318 126.101 93.13L124.301 93.436C124.625 95.542 126.389 97.162 128.729 97.162C131.357 97.162 133.229 95.056 133.229 92.662C133.229 90.376 131.519 88.45 129.053 88.45ZM139.315 97.162C141.745 97.162 143.851 95.812 143.851 93.346C143.851 91.816 142.969 90.7 141.277 90.286C142.555 89.8 143.203 88.828 143.203 87.658C143.203 85.57 141.349 84.292 139.279 84.292C137.119 84.292 135.337 85.642 135.337 87.928L137.137 88.036C137.155 86.794 138.019 86.038 139.297 86.038C140.467 86.038 141.367 86.686 141.367 87.874C141.367 89.098 140.737 89.692 138.739 89.692V91.168C140.215 91.15 142.033 91.294 142.033 93.202C142.033 94.678 140.809 95.416 139.333 95.416C137.713 95.416 136.543 94.552 136.543 93.004L134.743 93.112C134.743 95.794 136.795 97.162 139.315 97.162ZM150.009 97.162C152.331 97.162 154.491 95.92 154.491 93.364C154.491 91.924 153.771 90.754 152.493 90.178C153.339 89.62 153.861 88.702 153.861 87.622C153.861 85.552 152.043 84.292 150.009 84.292C148.029 84.292 146.139 85.516 146.139 87.604C146.139 88.702 146.679 89.602 147.507 90.178C146.229 90.754 145.509 91.924 145.509 93.364C145.509 95.92 147.687 97.162 150.009 97.162ZM150.009 89.656C148.803 89.656 147.975 88.954 147.975 87.748C147.975 86.704 148.857 86.038 150.009 86.038C151.197 86.038 152.043 86.74 152.043 87.766C152.043 88.954 151.215 89.656 150.009 89.656ZM150.009 95.416C148.533 95.416 147.327 94.678 147.327 93.238C147.327 91.762 148.425 90.916 150.009 90.916C151.557 90.916 152.673 91.762 152.673 93.238C152.673 94.678 151.485 95.416 150.009 95.416ZM160.685 97.162C163.871 97.162 164.771 93.958 164.771 90.754C164.771 87.514 163.835 84.274 160.559 84.274C156.941 84.274 156.437 87.946 156.437 90.736C156.437 93.49 156.977 97.162 160.685 97.162ZM160.631 95.416C158.507 95.416 158.327 92.986 158.327 90.736C158.327 88.414 158.507 86.02 160.559 86.02C162.575 86.02 162.791 88.324 162.791 90.718C162.791 93.022 162.593 95.416 160.631 95.416ZM166.699 84.454V86.2H173.431L167.851 97H169.957L175.717 85.462V84.454H166.699ZM181.785 84.292C179.337 84.292 177.339 86.218 177.339 88.594C177.339 90.52 178.671 92.122 180.417 92.644C181.065 92.86 181.749 92.896 182.415 92.77L179.715 97H181.821L185.565 90.88C185.979 90.196 186.267 89.44 186.267 88.576C186.267 86.218 184.233 84.292 181.785 84.292ZM181.785 91.132C180.345 91.132 179.193 89.98 179.193 88.594C179.193 87.19 180.345 86.038 181.785 86.038C183.243 86.038 184.377 87.19 184.377 88.594C184.377 89.98 183.225 91.132 181.785 91.132ZM192.389 84.292C189.941 84.292 187.943 86.218 187.943 88.594C187.943 90.52 189.275 92.122 191.021 92.644C191.669 92.86 192.353 92.896 193.019 92.77L190.319 97H192.425L196.169 90.88C196.583 90.196 196.871 89.44 196.871 88.576C196.871 86.218 194.837 84.292 192.389 84.292ZM192.389 91.132C190.949 91.132 189.797 89.98 189.797 88.594C189.797 87.19 190.949 86.038 192.389 86.038C193.847 86.038 194.981 87.19 194.981 88.594C194.981 89.98 193.829 91.132 192.389 91.132ZM202.993 84.292C200.545 84.292 198.547 86.218 198.547 88.594C198.547 90.52 199.879 92.122 201.625 92.644C202.273 92.86 202.957 92.896 203.623 92.77L200.923 97H203.029L206.773 90.88C207.187 90.196 207.475 89.44 207.475 88.576C207.475 86.218 205.441 84.292 202.993 84.292ZM202.993 91.132C201.553 91.132 200.401 89.98 200.401 88.594C200.401 87.19 201.553 86.038 202.993 86.038C204.451 86.038 205.585 87.19 205.585 88.594C205.585 89.98 204.433 91.132 202.993 91.132Z" fill="#183B56"/>
<path d="M33.458 97L30.038 91.24C31.73 90.826 32.63 89.71 32.63 87.91C32.63 85.732 31.226 84.454 28.49 84.454H24.962V97H26.168V91.42H27.968C28.274 91.42 28.562 91.42 28.832 91.402L32.054 97H33.458ZM26.168 90.286V85.57H28.382C30.308 85.57 31.406 86.308 31.406 87.928C31.406 89.566 30.326 90.286 28.382 90.286H26.168ZM38.8631 87.982C37.3151 87.982 36.1811 88.576 35.2631 89.8L36.1091 90.502C36.8471 89.494 37.7111 89.026 38.8451 89.026C40.3571 89.026 41.2031 89.872 41.2031 91.474V91.852H38.7551C37.6751 91.852 36.7931 92.014 36.1451 92.338C35.3891 92.734 34.9571 93.4 34.9571 94.426C34.9571 96.154 36.3071 97.144 37.9991 97.144C39.3311 97.144 40.5371 96.514 41.2031 95.2L41.2931 97H42.3731V91.474C42.3731 89.152 40.9871 87.982 38.8631 87.982ZM38.1791 96.118C36.8831 96.118 36.1271 95.47 36.1271 94.444C36.1271 93.868 36.3611 93.454 36.7931 93.184C37.2791 92.86 38.0171 92.752 38.8991 92.752H41.2031V93.67C40.7891 95.128 39.7631 96.118 38.1791 96.118ZM49.0221 95.938C48.6261 96.082 48.2661 96.154 47.9781 96.154C47.2761 96.154 46.8801 95.758 46.8801 94.858V89.062H49.0221V88.126H46.8801V84.724L45.7101 85.606V88.126H44.2341V89.062H45.7101V94.948C45.7101 96.478 46.5381 97.144 47.7081 97.144C48.1221 97.144 48.5721 97.054 49.0401 96.892L49.0221 95.938ZM54.7337 97.144C56.1557 97.144 57.1457 96.694 58.1537 95.65L57.3257 94.93C56.5337 95.776 55.7957 96.064 54.7337 96.064C52.9517 96.064 51.8717 94.858 51.8357 92.878H58.3697C58.4057 92.662 58.4237 92.356 58.4237 92.104C58.4237 90.106 57.3077 87.982 54.5897 87.982C52.0337 87.982 50.6657 90.088 50.6657 92.608C50.6657 95.146 52.0517 97.144 54.7337 97.144ZM51.8357 92.032C51.8717 90.34 52.8977 88.972 54.5717 88.972C56.4077 88.972 57.2177 90.304 57.2897 91.582C57.2897 91.708 57.2897 91.888 57.2717 92.032H51.8357ZM61.5996 90.484H62.8776V88.522H61.5996V90.484ZM61.5996 97H62.8776V95.038H61.5996V97Z" fill="#183B56"/>
</g>
<defs>
<clipPath id="clip0_1_11816">
<rect width="85" height="24" fill="white" transform="translate(23 17)"/>
</clipPath>
<clipPath id="clip1_1_11816">
<rect width="186" height="24" fill="white" transform="translate(23 79)"/>
</clipPath>
</defs>
</svg>
