<svg width="351" height="129" viewBox="0 0 351 129" fill="none" xmlns="http://www.w3.org/2000/svg">
<rect x="0.5" y="0.5" width="350" height="128" rx="15.5" stroke="#ECEEF2"/>
<rect opacity="0.1" x="5" y="5" width="341" height="48" rx="16" fill="#B3BAC5"/>
<g clip-path="url(#clip0_1_11743)">
<path d="M58.52 34H62.68C64.968 34 66.28 32.816 66.28 30.784C66.28 29.568 65.8 28.464 64.376 28.016C65.112 27.632 65.704 26.832 65.704 25.648C65.704 23.872 64.44 22.848 62.248 22.848H58.52V34ZM60.216 27.472V24.4H62.248C63.368 24.4 64.008 24.944 64.008 25.968C64.008 26.928 63.4 27.472 62.328 27.472H60.216ZM60.216 32.432V28.944H62.664C63.32 28.944 64.6 29.104 64.6 30.624C64.6 31.808 63.848 32.432 62.552 32.432H60.216ZM68.3749 24.576H70.0869V22.848H68.3749V24.576ZM68.4229 34H70.0389V26.112H68.4229V34ZM76.5017 27.408V26.112H74.5497V22.928L72.9177 24.144V26.112H71.6377V27.408H72.9177V31.92C72.9177 33.488 73.9097 34.144 75.1417 34.144C75.5897 34.144 76.0377 34.064 76.5017 33.92V32.608C76.1497 32.72 75.8137 32.784 75.5417 32.784C74.9177 32.784 74.5497 32.48 74.5497 31.792V27.408H76.5017ZM81.4082 34.144C82.9442 34.144 84.1282 33.312 84.6402 31.872L83.1522 31.296C82.9123 32.176 82.2402 32.72 81.3922 32.72C79.9202 32.72 79.3442 31.456 79.3442 30.08C79.3442 28.704 79.9362 27.392 81.3922 27.392C82.2402 27.392 82.9123 27.952 83.1682 28.848L84.7203 28.224C84.1122 26.72 82.9123 25.968 81.3922 25.968C78.8802 25.968 77.6802 28 77.6802 30.08C77.6802 32.208 78.9282 34.144 81.4082 34.144ZM89.5556 34.144C91.9236 34.144 93.4596 32.304 93.4596 30.048C93.4596 27.776 91.9236 25.968 89.5556 25.968C87.1716 25.968 85.6676 27.776 85.6676 30.048C85.6676 32.304 87.1716 34.144 89.5556 34.144ZM89.5556 32.72C88.0196 32.72 87.2996 31.504 87.2996 30.048C87.2996 28.576 88.0196 27.392 89.5556 27.392C91.1076 27.392 91.8276 28.576 91.8276 30.048C91.8276 31.504 91.1076 32.72 89.5556 32.72ZM95.2961 24.576H97.0081V22.848H95.2961V24.576ZM95.3441 34H96.9601V26.112H95.3441V34ZM99.551 34H101.167V30.672C101.167 29.088 101.343 27.392 103.103 27.392C104.575 27.392 104.719 28.56 104.719 29.376V34H106.351V28.976C106.351 27.024 105.343 25.968 103.599 25.968C102.575 25.968 101.695 26.352 101.167 27.232V26.112H99.551V34Z" fill="#183B56"/>
<path fill-rule="evenodd" clip-rule="evenodd" d="M46.8981 29.0593C46.8981 35.6538 41.5523 40.9996 34.9578 40.9996C28.3633 40.9996 23.0175 35.6538 23.0175 29.0593C23.0175 22.4647 28.3633 17.119 34.9578 17.119C41.5523 17.119 46.8981 22.4647 46.8981 29.0593Z" fill="#F7931A"/>
<path fill-rule="evenodd" clip-rule="evenodd" d="M37.8568 32.5489C37.7569 32.8848 37.5321 33.1615 37.2238 33.3282C36.9155 33.4952 36.5608 33.5319 36.225 33.4319L32.8625 32.4304L33.6116 29.9155L36.9739 30.917H36.974C37.6672 31.1235 38.0634 31.8555 37.8568 32.5489ZM38.9909 27.3949C39.1576 27.7032 39.1944 28.0578 39.0945 28.3938C38.8879 29.0869 38.1555 29.4829 37.4626 29.2768H37.4625L34.1001 28.2753L34.849 25.7604L38.2115 26.7618C38.5473 26.8618 38.8241 27.0866 38.9909 27.3949ZM40.4961 26.5805C40.1118 25.8702 39.4738 25.352 38.6999 25.1215L38.255 24.9891L38.8779 22.8979L37.2799 22.422L36.6571 24.5132L35.2928 24.1069L35.9157 22.0156L35.5329 21.9016L33.9821 21.4398L33.3817 23.4555L31.4918 22.8927L30.9585 24.6837L32.8484 25.2467L30.9068 31.7658L29.0168 31.203L28.4835 32.9941L30.3733 33.5569L29.8666 35.2583L30.2493 35.3723L31.8001 35.8341L32.3293 34.0573L33.6968 34.4646L33.1676 36.2415L34.7592 36.7156L35.2884 34.9386L35.7364 35.072C36.022 35.157 36.3137 35.1992 36.6036 35.1992C37.0991 35.1992 37.59 35.0761 38.0381 34.8335C38.7484 34.4492 39.2665 33.8113 39.4971 33.0373C39.7395 32.223 39.6198 31.3866 39.2343 30.6981C39.9342 30.3329 40.4919 29.6968 40.7346 28.8823C40.9651 28.1082 40.8804 27.2907 40.4961 26.5805Z" fill="white"/>
</g>
<g clip-path="url(#clip1_1_11743)">
<path d="M223.52 34H226.656C230.368 34 232.448 31.984 232.448 28.512C232.448 24.88 230.432 22.848 226.672 22.848H223.52V34ZM225.216 32.432V24.4H226.656C229.52 24.4 230.736 25.632 230.736 28.448C230.736 31.312 229.12 32.432 226.496 32.432H225.216ZM237.508 25.968C236.052 25.968 234.931 26.56 234.067 27.632L235.251 28.624C235.843 27.824 236.595 27.392 237.476 27.392C238.531 27.392 239.172 27.984 239.172 29.04V29.312H237.14C236.276 29.312 235.539 29.424 234.963 29.68C234.259 30.032 233.827 30.624 233.827 31.632C233.827 33.264 235.171 34.144 236.628 34.144C237.603 34.144 238.628 33.728 239.172 32.8L239.299 34H240.804V29.04C240.804 26.976 239.411 25.968 237.508 25.968ZM236.884 32.752C235.955 32.752 235.444 32.32 235.444 31.648C235.444 31.264 235.603 31.008 235.859 30.848C236.211 30.592 236.772 30.528 237.347 30.528H239.172V30.784C239.011 31.856 238.212 32.752 236.884 32.752ZM245.593 34.144C247.097 34.144 248.569 33.344 248.569 31.6C248.569 28.672 244.377 29.552 244.377 28.096C244.377 27.632 244.841 27.264 245.593 27.264C246.505 27.264 247.001 27.776 247.305 28.352L248.569 27.648C247.993 26.592 246.969 25.968 245.657 25.968C244.137 25.968 242.809 26.736 242.809 28.336C242.809 31.12 246.969 30.08 246.969 31.68C246.969 32.24 246.505 32.784 245.513 32.784C244.409 32.784 243.865 32.064 243.625 31.392L242.313 31.984C242.713 33.184 243.961 34.144 245.593 34.144ZM250.587 34H252.219V30.672C252.219 29.088 252.395 27.392 254.155 27.392C255.627 27.392 255.771 28.56 255.771 29.376V34H257.403V28.976C257.403 27.024 256.395 25.968 254.651 25.968C253.627 25.968 252.747 26.352 252.219 27.232V22.848H250.587V34Z" fill="#183B56"/>
<path fill-rule="evenodd" clip-rule="evenodd" d="M211.898 28.968C211.898 35.5625 206.552 40.9083 199.958 40.9083C193.363 40.9083 188.017 35.5625 188.017 28.968C188.017 22.3735 193.363 17.0277 199.958 17.0277C206.552 17.0277 211.898 22.3735 211.898 28.968Z" fill="#0986D3"/>
<path fill-rule="evenodd" clip-rule="evenodd" d="M207.786 27.3355L206.089 32.2483C205.733 33.2802 204.761 33.974 203.67 33.974H193.281L194.081 31.3984H203.658L205.345 26.5146H195.597L196.397 23.9391H205.366C206.192 23.9391 206.971 24.3415 207.451 25.0143C207.93 25.6871 208.056 26.5547 207.786 27.3355Z" fill="white"/>
<path fill-rule="evenodd" clip-rule="evenodd" d="M199.689 27.6687V27.8313L198.94 30.2442H191.99L192.79 27.6687H199.689Z" fill="white"/>
</g>
<path d="M155.324 23.72L150.573 19.769C150.369 19.5995 150.341 19.2969 150.511 19.0931C150.68 18.8892 150.983 18.8614 151.187 19.0309L156.947 23.8214C157.064 23.9186 157.122 24.0575 157.12 24.1958L157.12 24.2C157.12 24.3783 157.023 24.5339 156.878 24.6167L151.188 29.3684C150.984 29.5384 150.681 29.5111 150.512 29.3076C150.342 29.1042 150.369 28.8015 150.572 28.6315L155.305 24.68H139.36C139.095 24.68 138.88 24.4651 138.88 24.2C138.88 23.9349 139.095 23.72 139.36 23.72H155.324Z" fill="#5A7184"/>
<path d="M140.695 34.28L145.428 38.2316C145.631 38.4015 145.658 38.7042 145.488 38.9077C145.319 39.1112 145.016 39.1384 144.812 38.9685L139.146 34.2369C138.967 34.1564 138.878 33.9753 138.88 33.7951C138.879 33.7288 138.892 33.6624 138.919 33.6006C138.951 33.523 139.003 33.4539 139.074 33.4037L144.813 28.631C145.017 28.4615 145.32 28.4893 145.489 28.6931C145.659 28.8969 145.631 29.1996 145.427 29.3691L140.676 33.32H156.64C157.28 33.32 157.28 34.28 156.64 34.28H140.695Z" fill="#5A7184"/>
<g clip-path="url(#clip2_1_11743)">
<path d="M94.118 92.284V84.454H92.48L86.27 92.914V94.03H92.282V97H94.118V94.03H96.134V92.284H94.118ZM88.718 92.284L92.282 87.28V92.284H88.718ZM97.3238 84.454V86.2H104.056L98.4758 97H100.582L106.342 85.462V84.454H97.3238ZM109.08 97H110.934V94.786H109.08V97ZM113.698 84.454V86.2H120.43L114.85 97H116.956L122.716 85.462V84.454H113.698ZM124.301 84.454V86.2H131.033L125.453 97H127.559L133.319 85.462V84.454H124.301ZM139.405 84.454V85.318C139.405 86.11 138.955 86.434 138.145 86.434H136.327V87.892H139.333V97H141.169V84.454H139.405ZM145.509 84.454V86.2H152.241L146.661 97H148.767L154.527 85.462V84.454H145.509ZM160.613 84.454V85.318C160.613 86.11 160.163 86.434 159.353 86.434H157.535V87.892H160.541V97H162.377V84.454H160.613ZM171.217 84.454V85.318C171.217 86.11 170.767 86.434 169.957 86.434H168.139V87.892H171.145V97H172.981V84.454H171.217ZM180.524 95.272C182.9 93.832 185.636 91.078 185.636 88.054C185.636 85.768 184.052 84.31 181.784 84.31C179.066 84.31 177.572 86.434 177.572 88.774L179.372 88.9C179.426 87.424 180.056 86.074 181.784 86.074C183.17 86.074 183.818 86.938 183.818 88.18C183.818 91.258 179.912 93.922 177.446 95.434V97H186.194V95.272H180.524ZM192.424 97.162C194.746 97.162 196.906 95.92 196.906 93.364C196.906 91.924 196.186 90.754 194.908 90.178C195.754 89.62 196.276 88.702 196.276 87.622C196.276 85.552 194.458 84.292 192.424 84.292C190.444 84.292 188.554 85.516 188.554 87.604C188.554 88.702 189.094 89.602 189.922 90.178C188.644 90.754 187.924 91.924 187.924 93.364C187.924 95.92 190.102 97.162 192.424 97.162ZM192.424 89.656C191.218 89.656 190.39 88.954 190.39 87.748C190.39 86.704 191.272 86.038 192.424 86.038C193.612 86.038 194.458 86.74 194.458 87.766C194.458 88.954 193.63 89.656 192.424 89.656ZM192.424 95.416C190.948 95.416 189.742 94.678 189.742 93.238C189.742 91.762 190.84 90.916 192.424 90.916C193.972 90.916 195.088 91.762 195.088 93.238C195.088 94.678 193.9 95.416 192.424 95.416Z" fill="#183B56"/>
<path d="M33.458 97L30.038 91.24C31.73 90.826 32.63 89.71 32.63 87.91C32.63 85.732 31.226 84.454 28.49 84.454H24.962V97H26.168V91.42H27.968C28.274 91.42 28.562 91.42 28.832 91.402L32.054 97H33.458ZM26.168 90.286V85.57H28.382C30.308 85.57 31.406 86.308 31.406 87.928C31.406 89.566 30.326 90.286 28.382 90.286H26.168ZM38.8631 87.982C37.3151 87.982 36.1811 88.576 35.2631 89.8L36.1091 90.502C36.8471 89.494 37.7111 89.026 38.8451 89.026C40.3571 89.026 41.2031 89.872 41.2031 91.474V91.852H38.7551C37.6751 91.852 36.7931 92.014 36.1451 92.338C35.3891 92.734 34.9571 93.4 34.9571 94.426C34.9571 96.154 36.3071 97.144 37.9991 97.144C39.3311 97.144 40.5371 96.514 41.2031 95.2L41.2931 97H42.3731V91.474C42.3731 89.152 40.9871 87.982 38.8631 87.982ZM38.1791 96.118C36.8831 96.118 36.1271 95.47 36.1271 94.444C36.1271 93.868 36.3611 93.454 36.7931 93.184C37.2791 92.86 38.0171 92.752 38.8991 92.752H41.2031V93.67C40.7891 95.128 39.7631 96.118 38.1791 96.118ZM49.0221 95.938C48.6261 96.082 48.2661 96.154 47.9781 96.154C47.2761 96.154 46.8801 95.758 46.8801 94.858V89.062H49.0221V88.126H46.8801V84.724L45.7101 85.606V88.126H44.2341V89.062H45.7101V94.948C45.7101 96.478 46.5381 97.144 47.7081 97.144C48.1221 97.144 48.5721 97.054 49.0401 96.892L49.0221 95.938ZM54.7337 97.144C56.1557 97.144 57.1457 96.694 58.1537 95.65L57.3257 94.93C56.5337 95.776 55.7957 96.064 54.7337 96.064C52.9517 96.064 51.8717 94.858 51.8357 92.878H58.3697C58.4057 92.662 58.4237 92.356 58.4237 92.104C58.4237 90.106 57.3077 87.982 54.5897 87.982C52.0337 87.982 50.6657 90.088 50.6657 92.608C50.6657 95.146 52.0517 97.144 54.7337 97.144ZM51.8357 92.032C51.8717 90.34 52.8977 88.972 54.5717 88.972C56.4077 88.972 57.2177 90.304 57.2897 91.582C57.2897 91.708 57.2897 91.888 57.2717 92.032H51.8357ZM61.5996 90.484H62.8776V88.522H61.5996V90.484ZM61.5996 97H62.8776V95.038H61.5996V97Z" fill="#183B56"/>
</g>
<defs>
<clipPath id="clip0_1_11743">
<rect width="85" height="24" fill="white" transform="translate(23 17)"/>
</clipPath>
<clipPath id="clip1_1_11743">
<rect width="71" height="24" fill="white" transform="translate(188 17)"/>
</clipPath>
<clipPath id="clip2_1_11743">
<rect width="175" height="24" fill="white" transform="translate(23 79)"/>
</clipPath>
</defs>
</svg>
