<svg width="351" height="129" viewBox="0 0 351 129" fill="none" xmlns="http://www.w3.org/2000/svg">
<rect x="0.5" y="0.5" width="350" height="128" rx="15.5" stroke="#ECEEF2"/>
<rect opacity="0.1" x="5" y="5" width="341" height="48" rx="16" fill="#B3BAC5"/>
<g clip-path="url(#clip0_1_11792)">
<path d="M58.52 34H65.896V32.432H60.216V29.056H65.432V27.504H60.216V24.4H65.896V22.848H58.52V34ZM72.0918 27.408V26.112H70.1398V22.928L68.5077 24.144V26.112H67.2277V27.408H68.5077V31.92C68.5077 33.488 69.4997 34.144 70.7318 34.144C71.1797 34.144 71.6277 34.064 72.0918 33.92V32.608C71.7397 32.72 71.4037 32.784 71.1318 32.784C70.5078 32.784 70.1398 32.48 70.1398 31.792V27.408H72.0918ZM73.7079 34H75.3399V30.672C75.3399 29.088 75.5159 27.392 77.2759 27.392C78.7479 27.392 78.8919 28.56 78.8919 29.376V34H80.5239V28.976C80.5239 27.024 79.5159 25.968 77.7719 25.968C76.7479 25.968 75.8679 26.352 75.3399 27.232V22.848H73.7079V34ZM86.0664 34.144C87.3784 34.144 88.3544 33.712 89.2344 32.752L88.0984 31.76C87.5064 32.432 86.8664 32.672 86.0824 32.672C84.7224 32.672 83.9704 31.856 83.9064 30.576H89.4424C89.4744 30.336 89.4904 30.08 89.4904 29.856C89.4904 27.792 88.3704 25.968 85.9384 25.968C83.4264 25.968 82.2744 27.968 82.2744 30.096C82.2744 32.256 83.4584 34.144 86.0664 34.144ZM83.9224 29.408C83.9064 28.352 84.5944 27.328 85.9224 27.328C87.1064 27.328 87.8104 28.064 87.9224 29.072C87.9384 29.184 87.9384 29.312 87.9224 29.408H83.9224ZM91.4029 34H93.0189V29.904C93.0189 28.288 93.7549 27.552 94.9389 27.552C95.3069 27.552 95.6109 27.648 95.8829 27.808L96.6829 26.368C96.2029 26.08 95.7549 25.968 95.2589 25.968C94.3469 25.968 93.3869 26.496 93.0349 27.552V26.112H91.4029V34ZM100.683 34.144C101.995 34.144 102.971 33.712 103.851 32.752L102.715 31.76C102.123 32.432 101.483 32.672 100.699 32.672C99.3392 32.672 98.5872 31.856 98.5232 30.576H104.059C104.091 30.336 104.107 30.08 104.107 29.856C104.107 27.792 102.987 25.968 100.555 25.968C98.0432 25.968 96.8912 27.968 96.8912 30.096C96.8912 32.256 98.0752 34.144 100.683 34.144ZM98.5392 29.408C98.5232 28.352 99.2112 27.328 100.539 27.328C101.723 27.328 102.427 28.064 102.539 29.072C102.555 29.184 102.555 29.312 102.539 29.408H98.5392ZM108.596 34.144C109.588 34.144 110.468 33.76 110.996 32.88V34H112.628V26.112H110.996V29.312C110.996 30.896 110.82 32.72 109.06 32.72C107.588 32.72 107.444 31.408 107.444 30.592V26.112H105.828V31.008C105.828 32.784 106.676 34.144 108.596 34.144ZM115.211 34H116.843V30.704C116.843 29.056 116.971 27.392 118.555 27.392C119.851 27.392 120.043 28.64 120.043 29.504V34H121.675V30.704C121.675 29.056 121.787 27.392 123.371 27.392C124.731 27.392 124.875 28.704 124.875 29.552V34H126.507V29.072C126.507 27.392 125.691 25.968 123.803 25.968C122.747 25.968 121.835 26.4 121.259 27.648C120.827 26.368 119.883 25.968 118.955 25.968C118.091 25.968 117.259 26.304 116.779 27.264V26.112H115.211V34Z" fill="#183B56"/>
<path fill-rule="evenodd" clip-rule="evenodd" d="M46.9896 29.0593C46.9896 35.6538 41.6438 40.9996 35.0493 40.9996C28.4549 40.9996 23.109 35.6538 23.109 29.0593C23.109 22.4647 28.4549 17.119 35.0493 17.119C41.6438 17.119 46.9896 22.4647 46.9896 29.0593Z" fill="#497391"/>
<path fill-rule="evenodd" clip-rule="evenodd" d="M29.7624 30.5387L34.8839 19.9891V33.2346L29.7624 30.5387Z" fill="white"/>
<path fill-rule="evenodd" clip-rule="evenodd" d="M40.3363 30.5387L35.1967 33.2346V19.9855L40.3363 30.5387Z" fill="white"/>
<path fill-rule="evenodd" clip-rule="evenodd" d="M29.7624 30.9246L34.8839 33.4889V37.6124L29.7624 30.9246Z" fill="white"/>
<path fill-rule="evenodd" clip-rule="evenodd" d="M40.3363 30.9246L35.1967 37.6124V33.4889L40.3363 30.9246Z" fill="white"/>
</g>
<g clip-path="url(#clip1_1_11792)">
<path d="M239.52 34H241.2V29.296H242.992C245.408 29.296 246.752 28.16 246.752 26.032C246.752 24.048 245.584 22.848 242.992 22.848H239.52V34ZM241.2 27.728V24.4H242.832C244.256 24.4 245.056 24.848 245.056 26.064C245.056 27.264 244.272 27.728 242.832 27.728H241.2ZM251.2 34.144C252.511 34.144 253.488 33.712 254.368 32.752L253.232 31.76C252.64 32.432 252 32.672 251.215 32.672C249.855 32.672 249.103 31.856 249.039 30.576H254.576C254.608 30.336 254.624 30.08 254.624 29.856C254.624 27.792 253.503 25.968 251.071 25.968C248.559 25.968 247.407 27.968 247.407 30.096C247.407 32.256 248.591 34.144 251.2 34.144ZM249.056 29.408C249.039 28.352 249.727 27.328 251.056 27.328C252.24 27.328 252.944 28.064 253.056 29.072C253.072 29.184 253.072 29.312 253.056 29.408H249.056ZM259.672 34.144C260.984 34.144 261.96 33.712 262.84 32.752L261.704 31.76C261.112 32.432 260.472 32.672 259.688 32.672C258.328 32.672 257.576 31.856 257.512 30.576H263.048C263.08 30.336 263.096 30.08 263.096 29.856C263.096 27.792 261.976 25.968 259.544 25.968C257.032 25.968 255.88 27.968 255.88 30.096C255.88 32.256 257.064 34.144 259.672 34.144ZM257.528 29.408C257.512 28.352 258.2 27.328 259.528 27.328C260.712 27.328 261.416 28.064 261.528 29.072C261.544 29.184 261.544 29.312 261.528 29.408H257.528ZM265.008 34H266.624V29.904C266.624 28.288 267.36 27.552 268.544 27.552C268.912 27.552 269.216 27.648 269.488 27.808L270.288 26.368C269.808 26.08 269.36 25.968 268.864 25.968C267.952 25.968 266.992 26.496 266.64 27.552V26.112H265.008V34ZM274.209 34.144C275.745 34.144 276.929 33.312 277.441 31.872L275.953 31.296C275.713 32.176 275.041 32.72 274.193 32.72C272.721 32.72 272.145 31.456 272.145 30.08C272.145 28.704 272.737 27.392 274.193 27.392C275.041 27.392 275.713 27.952 275.969 28.848L277.521 28.224C276.913 26.72 275.713 25.968 274.193 25.968C271.681 25.968 270.481 28 270.481 30.08C270.481 32.208 271.729 34.144 274.209 34.144ZM282.356 34.144C284.724 34.144 286.26 32.304 286.26 30.048C286.26 27.776 284.724 25.968 282.356 25.968C279.972 25.968 278.468 27.776 278.468 30.048C278.468 32.304 279.972 34.144 282.356 34.144ZM282.356 32.72C280.82 32.72 280.1 31.504 280.1 30.048C280.1 28.576 280.82 27.392 282.356 27.392C283.908 27.392 284.628 28.576 284.628 30.048C284.628 31.504 283.908 32.72 282.356 32.72ZM288.097 24.576H289.809V22.848H288.097V24.576ZM288.145 34H289.761V26.112H288.145V34ZM292.352 34H293.968V30.672C293.968 29.088 294.144 27.392 295.904 27.392C297.376 27.392 297.52 28.56 297.52 29.376V34H299.152V28.976C299.152 27.024 298.144 25.968 296.4 25.968C295.376 25.968 294.496 26.352 293.968 27.232V26.112H292.352V34Z" fill="#183B56"/>
<path fill-rule="evenodd" clip-rule="evenodd" d="M227.976 28.9717C227.976 35.5662 222.63 40.912 216.036 40.912C209.441 40.912 204.096 35.5662 204.096 28.9717C204.096 22.3772 209.441 17.0314 216.036 17.0314C222.63 17.0314 227.976 22.3772 227.976 28.9717Z" fill="#35B14F"/>
<path fill-rule="evenodd" clip-rule="evenodd" d="M210.879 22.7341V29.724C210.879 29.724 210.843 36.2684 217.53 35.9116C217.53 35.9116 221.453 30.1699 213.144 24.7847C213.144 24.7847 221.186 27.2022 219.742 35.9257C219.742 35.9257 224.449 32.7556 221.115 27.0315C221.115 27.0315 218.832 22.9302 210.879 22.7341Z" fill="white"/>
</g>
<path d="M171.324 23.72L166.573 19.769C166.369 19.5995 166.341 19.2969 166.511 19.0931C166.68 18.8892 166.983 18.8614 167.187 19.0309L172.947 23.8214C173.064 23.9186 173.122 24.0575 173.12 24.1958L173.12 24.2C173.12 24.3783 173.023 24.5339 172.878 24.6167L167.188 29.3684C166.984 29.5384 166.681 29.5111 166.512 29.3076C166.342 29.1042 166.369 28.8015 166.572 28.6315L171.305 24.68H155.36C155.095 24.68 154.88 24.4651 154.88 24.2C154.88 23.9349 155.095 23.72 155.36 23.72H171.324Z" fill="#5A7184"/>
<path d="M156.695 34.28L161.428 38.2316C161.631 38.4015 161.658 38.7042 161.488 38.9077C161.319 39.1112 161.016 39.1384 160.812 38.9685L155.146 34.2369C154.967 34.1564 154.878 33.9753 154.88 33.7951C154.879 33.7288 154.892 33.6624 154.919 33.6006C154.951 33.523 155.003 33.4539 155.074 33.4037L160.813 28.631C161.017 28.4615 161.32 28.4893 161.489 28.6931C161.659 28.8969 161.631 29.1996 161.427 29.3691L156.676 33.32H172.64C173.28 33.32 173.28 34.28 172.64 34.28H156.695Z" fill="#5A7184"/>
<path d="M91.31 97.162C94.496 97.162 95.396 93.958 95.396 90.754C95.396 87.514 94.46 84.274 91.184 84.274C87.566 84.274 87.062 87.946 87.062 90.736C87.062 93.49 87.602 97.162 91.31 97.162ZM91.256 95.416C89.132 95.416 88.952 92.986 88.952 90.736C88.952 88.414 89.132 86.02 91.184 86.02C93.2 86.02 93.416 88.324 93.416 90.718C93.416 93.022 93.218 95.416 91.256 95.416ZM98.4758 97H100.33V94.786H98.4758V97ZM107.684 97.162C110.87 97.162 111.77 93.958 111.77 90.754C111.77 87.514 110.834 84.274 107.558 84.274C103.94 84.274 103.436 87.946 103.436 90.736C103.436 93.49 103.976 97.162 107.684 97.162ZM107.63 95.416C105.506 95.416 105.326 92.986 105.326 90.736C105.326 88.414 105.506 86.02 107.558 86.02C109.574 86.02 109.79 88.324 109.79 90.718C109.79 93.022 109.592 95.416 107.63 95.416ZM118.27 97.162C121.456 97.162 122.356 93.958 122.356 90.754C122.356 87.514 121.42 84.274 118.144 84.274C114.526 84.274 114.022 87.946 114.022 90.736C114.022 93.49 114.562 97.162 118.27 97.162ZM118.216 95.416C116.092 95.416 115.912 92.986 115.912 90.736C115.912 88.414 116.092 86.02 118.144 86.02C120.16 86.02 120.376 88.324 120.376 90.718C120.376 93.022 120.178 95.416 118.216 95.416ZM130.152 88.81C129.504 88.612 128.838 88.558 128.172 88.684L130.854 84.454H128.748L125.004 90.574C124.59 91.258 124.32 92.014 124.32 92.878C124.32 95.236 126.336 97.162 128.784 97.162C131.232 97.162 133.248 95.236 133.248 92.86C133.248 90.934 131.916 89.332 130.152 88.81ZM128.784 95.416C127.344 95.416 126.192 94.264 126.192 92.86C126.192 91.474 127.344 90.322 128.784 90.322C130.224 90.322 131.376 91.474 131.376 92.86C131.376 94.264 130.224 95.416 128.784 95.416ZM139.37 84.454V85.318C139.37 86.11 138.92 86.434 138.11 86.434H136.292V87.892H139.298V97H141.134V84.454H139.37ZM150.226 88.45C149.524 88.45 148.75 88.63 147.994 89.188L148.552 86.2H153.844V84.454H147.04L145.852 91.006L147.616 91.456C148.102 90.718 148.876 90.178 149.974 90.178C151.648 90.178 152.476 91.33 152.476 92.662C152.476 94.066 151.576 95.416 149.884 95.416C148.336 95.416 147.436 94.318 147.274 93.13L145.474 93.436C145.798 95.542 147.562 97.162 149.902 97.162C152.53 97.162 154.402 95.056 154.402 92.662C154.402 90.376 152.692 88.45 150.226 88.45ZM159.282 95.272C161.658 93.832 164.394 91.078 164.394 88.054C164.394 85.768 162.81 84.31 160.542 84.31C157.824 84.31 156.33 86.434 156.33 88.774L158.13 88.9C158.184 87.424 158.814 86.074 160.542 86.074C161.928 86.074 162.576 86.938 162.576 88.18C162.576 91.258 158.67 93.922 156.204 95.434V97H164.952V95.272H159.282ZM166.681 84.454V86.2H173.413L167.833 97H169.939L175.699 85.462V84.454H166.681ZM180.489 95.272C182.865 93.832 185.601 91.078 185.601 88.054C185.601 85.768 184.017 84.31 181.749 84.31C179.031 84.31 177.537 86.434 177.537 88.774L179.337 88.9C179.391 87.424 180.021 86.074 181.749 86.074C183.135 86.074 183.783 86.938 183.783 88.18C183.783 91.258 179.877 93.922 177.411 95.434V97H186.159V95.272H180.489Z" fill="#183B56"/>
<path d="M33.458 97L30.038 91.24C31.73 90.826 32.63 89.71 32.63 87.91C32.63 85.732 31.226 84.454 28.49 84.454H24.962V97H26.168V91.42H27.968C28.274 91.42 28.562 91.42 28.832 91.402L32.054 97H33.458ZM26.168 90.286V85.57H28.382C30.308 85.57 31.406 86.308 31.406 87.928C31.406 89.566 30.326 90.286 28.382 90.286H26.168ZM38.8631 87.982C37.3151 87.982 36.1811 88.576 35.2631 89.8L36.1091 90.502C36.8471 89.494 37.7111 89.026 38.8451 89.026C40.3571 89.026 41.2031 89.872 41.2031 91.474V91.852H38.7551C37.6751 91.852 36.7931 92.014 36.1451 92.338C35.3891 92.734 34.9571 93.4 34.9571 94.426C34.9571 96.154 36.3071 97.144 37.9991 97.144C39.3311 97.144 40.5371 96.514 41.2031 95.2L41.2931 97H42.3731V91.474C42.3731 89.152 40.9871 87.982 38.8631 87.982ZM38.1791 96.118C36.8831 96.118 36.1271 95.47 36.1271 94.444C36.1271 93.868 36.3611 93.454 36.7931 93.184C37.2791 92.86 38.0171 92.752 38.8991 92.752H41.2031V93.67C40.7891 95.128 39.7631 96.118 38.1791 96.118ZM49.0221 95.938C48.6261 96.082 48.2661 96.154 47.9781 96.154C47.2761 96.154 46.8801 95.758 46.8801 94.858V89.062H49.0221V88.126H46.8801V84.724L45.7101 85.606V88.126H44.2341V89.062H45.7101V94.948C45.7101 96.478 46.5381 97.144 47.7081 97.144C48.1221 97.144 48.5721 97.054 49.0401 96.892L49.0221 95.938ZM54.7337 97.144C56.1557 97.144 57.1457 96.694 58.1537 95.65L57.3257 94.93C56.5337 95.776 55.7957 96.064 54.7337 96.064C52.9517 96.064 51.8717 94.858 51.8357 92.878H58.3697C58.4057 92.662 58.4237 92.356 58.4237 92.104C58.4237 90.106 57.3077 87.982 54.5897 87.982C52.0337 87.982 50.6657 90.088 50.6657 92.608C50.6657 95.146 52.0517 97.144 54.7337 97.144ZM51.8357 92.032C51.8717 90.34 52.8977 88.972 54.5717 88.972C56.4077 88.972 57.2177 90.304 57.2897 91.582C57.2897 91.708 57.2897 91.888 57.2717 92.032H51.8357ZM61.5996 90.484H62.8776V88.522H61.5996V90.484ZM61.5996 97H62.8776V95.038H61.5996V97Z" fill="#183B56"/>
<defs>
<clipPath id="clip0_1_11792">
<rect width="105" height="24" fill="white" transform="translate(23 17)"/>
</clipPath>
<clipPath id="clip1_1_11792">
<rect width="97" height="24" fill="white" transform="translate(204 17)"/>
</clipPath>
</defs>
</svg>
