<svg width="30" height="30" viewBox="0 0 30 30" fill="none" xmlns="http://www.w3.org/2000/svg">
<path fill-rule="evenodd" clip-rule="evenodd" d="M29.9732 14.96C29.9732 23.2032 23.291 29.8854 15.0478 29.8854C6.80471 29.8854 0.122475 23.2032 0.122475 14.96C0.122475 6.71691 6.80471 0.034668 15.0478 0.034668C23.291 0.034668 29.9732 6.71691 29.9732 14.96Z" fill="white"/>
<path fill-rule="evenodd" clip-rule="evenodd" d="M27.7484 22.8021C26.9388 24.1126 25.9306 25.2875 24.7671 26.2869C24.7 26.345 24.633 26.402 24.5647 26.4577C23.7465 27.1368 22.8533 27.7287 21.9009 28.2208C21.7478 28.3018 21.5936 28.3789 21.4368 28.451C19.5002 29.3718 17.3335 29.8854 15.0478 29.8854C12.713 29.8854 10.5032 29.349 8.53512 28.3915C8.43258 28.3435 8.33138 28.2929 8.23034 28.2398C7.27661 27.7502 6.38228 27.1596 5.56138 26.4815C5.46915 26.4069 5.37795 26.3299 5.28825 26.2527C4.14094 25.2611 3.1481 24.0974 2.34735 22.8021H8.53512V14.855L12.8623 19.1821L13.5047 19.8247L15.0757 21.3956L16.6454 19.8247L17.2891 19.1821L21.4368 15.0333V22.8021H27.7484Z" fill="#4C4C4C"/>
<path fill-rule="evenodd" clip-rule="evenodd" d="M29.9732 14.96C29.9732 16.6639 29.6874 18.3005 29.1613 19.8247H24.7671V7.27601L21.4368 10.6065L15.0758 16.9687L5.28815 7.18109V19.8247H0.934564C0.408296 18.3005 0.122475 16.6639 0.122475 14.96C0.122475 12.4897 0.723221 10.1599 1.78695 8.10706C2.27904 7.15467 2.87113 6.26153 3.55039 5.44318C4.07904 4.80452 4.66083 4.21004 5.28815 3.66735C6.26725 2.82109 7.35755 2.099 8.53501 1.52855C10.5032 0.570937 12.7129 0.034668 15.0478 0.034668C17.3334 0.034668 19.5002 0.54825 21.4368 1.469C22.6446 2.04079 23.764 2.77183 24.7671 3.63318C25.4196 4.19362 26.0244 4.80959 26.5695 5.47362C27.2474 6.29452 27.8381 7.1887 28.3277 8.14243C29.3799 10.1865 29.9732 12.5036 29.9732 14.96Z" fill="#FF6600"/>
</svg>
