<svg width="30" height="30" viewBox="0 0 30 30" fill="none" xmlns="http://www.w3.org/2000/svg">
<path fill-rule="evenodd" clip-rule="evenodd" d="M29.8726 15.0741C29.8726 23.3172 23.1903 29.9994 14.9472 29.9994C6.70407 29.9994 0.0218353 23.3172 0.0218353 15.0741C0.0218353 6.83092 6.70407 0.148682 14.9472 0.148682C23.1903 0.148682 29.8726 6.83092 29.8726 15.0741Z" fill="#F7931A"/>
<path fill-rule="evenodd" clip-rule="evenodd" d="M18.571 19.436C18.4461 19.8558 18.1651 20.2018 17.7797 20.4102C17.3943 20.6188 16.951 20.6648 16.5312 20.5397L12.3281 19.2879L13.2645 16.1442L17.4673 17.3961H17.4675C18.334 17.6542 18.8293 18.5693 18.571 19.436ZM19.9887 12.9934C20.197 13.3788 20.243 13.8221 20.1181 14.2421C19.8599 15.1085 18.9443 15.6034 18.0782 15.3458H18.0781L13.8751 14.094L14.8112 10.9503L19.0143 12.2021C19.4342 12.3272 19.7801 12.6081 19.9887 12.9934ZM21.8701 11.9755C21.3897 11.0876 20.5922 10.4399 19.6249 10.1518L19.0688 9.98628L19.8473 7.37225L17.8499 6.77732L17.0713 9.39135L15.366 8.88344L16.1446 6.26941L15.6661 6.12687L13.7276 5.54956L12.9772 8.06926L10.6148 7.36568L9.94806 9.60449L12.3104 10.3082L9.88343 18.4572L7.52104 17.7536L6.85433 19.9925L9.21657 20.696L8.58328 22.8227L9.06164 22.9652L11.0001 23.5425L11.6616 21.3215L13.371 21.8306L12.7096 24.0518L14.699 24.6443L15.3604 22.4231L15.9204 22.5899C16.2775 22.6961 16.6421 22.7488 17.0045 22.7488C17.6239 22.7488 18.2375 22.5949 18.7976 22.2918C19.6855 21.8114 20.3331 21.014 20.6213 20.0464C20.9243 19.0287 20.7748 17.9831 20.2928 17.1225C21.1678 16.666 21.8649 15.8709 22.1682 14.8527C22.4564 13.8851 22.3504 12.8633 21.8701 11.9755Z" fill="white"/>
</svg>
