<svg width="70" height="36" viewBox="0 0 70 36" fill="none" xmlns="http://www.w3.org/2000/svg">
<rect x="0.5" width="69" height="36" rx="8" fill="#36B37E"/>
<path d="M20.3984 12.5781H23.9531C25.474 12.5781 26.625 12.7917 27.4062 13.2188C28.1875 13.6458 28.5781 14.3958 28.5781 15.4688C28.5781 15.901 28.5078 16.2917 28.3672 16.6406C28.2318 16.9896 28.0339 17.276 27.7734 17.5C27.513 17.724 27.1953 17.8698 26.8203 17.9375V18.0156C27.2005 18.0938 27.5443 18.2292 27.8516 18.4219C28.1589 18.6094 28.4036 18.8854 28.5859 19.25C28.7734 19.6094 28.8672 20.0885 28.8672 20.6875C28.8672 21.3802 28.6979 21.974 28.3594 22.4688C28.0208 22.9635 27.5365 23.3438 26.9062 23.6094C26.2812 23.8698 25.5365 24 24.6719 24H20.3984V12.5781ZM22.8203 17.1016H24.2266C24.9297 17.1016 25.4167 16.9922 25.6875 16.7734C25.9583 16.5495 26.0938 16.2214 26.0938 15.7891C26.0938 15.3516 25.9323 15.0391 25.6094 14.8516C25.2917 14.6589 24.7865 14.5625 24.0938 14.5625H22.8203V17.1016ZM22.8203 19.0234V22H24.3984C25.1276 22 25.6354 21.8594 25.9219 21.5781C26.2083 21.2969 26.3516 20.9193 26.3516 20.4453C26.3516 20.1641 26.2891 19.9167 26.1641 19.7031C26.0391 19.4896 25.8281 19.3229 25.5312 19.2031C25.2396 19.0833 24.8359 19.0234 24.3203 19.0234H22.8203ZM40.4453 12.5781V19.9688C40.4453 20.7552 40.2708 21.4661 39.9219 22.1016C39.5781 22.7318 39.0547 23.2318 38.3516 23.6016C37.6536 23.9714 36.7734 24.1562 35.7109 24.1562C34.2005 24.1562 33.0495 23.7708 32.2578 23C31.4661 22.2292 31.0703 21.2083 31.0703 19.9375V12.5781H33.4844V19.5703C33.4844 20.513 33.6771 21.1745 34.0625 21.5547C34.4479 21.9349 35.0182 22.125 35.7734 22.125C36.3047 22.125 36.7344 22.0339 37.0625 21.8516C37.3958 21.6693 37.6406 21.388 37.7969 21.0078C37.9531 20.6276 38.0312 20.1432 38.0312 19.5547V12.5781H40.4453ZM46.7969 17.2812L49.1797 12.5781H51.7891L48 19.5547V24H45.5938V19.6328L41.8047 12.5781H44.4297L46.7969 17.2812Z" fill="white"/>
</svg>
