<svg width="30" height="30" viewBox="0 0 30 30" fill="none" xmlns="http://www.w3.org/2000/svg">
<path fill-rule="evenodd" clip-rule="evenodd" d="M14.935 0.115967C6.6919 0.115967 0.00965881 6.79821 0.00965881 15.0413C0.00965881 23.2845 6.6919 29.9667 14.935 29.9667C23.1782 29.9667 29.8604 23.2845 29.8604 15.0413C29.8604 6.79821 23.1782 0.115967 14.935 0.115967Z" fill="#3D3E3C"/>
<path fill-rule="evenodd" clip-rule="evenodd" d="M14.935 1.35974C22.4791 1.35974 28.6167 7.49735 28.6167 15.0414C28.6167 22.5853 22.4791 28.7229 14.935 28.7229C7.391 28.7229 1.25339 22.5853 1.25339 15.0414C1.25339 7.49735 7.391 1.35974 14.935 1.35974Z" fill="white"/>
<path fill-rule="evenodd" clip-rule="evenodd" d="M24.3407 9.49529C24.01 8.93514 23.6219 8.39992 23.1824 7.8938L7.78758 23.2886C8.2937 23.728 8.82893 24.1162 9.38907 24.4469L24.3407 9.49529Z" fill="#B6B7BA"/>
<path fill-rule="evenodd" clip-rule="evenodd" d="M21.9162 6.65114C21.3996 6.22025 20.8523 5.84547 20.2826 5.52502L5.41869 20.3888C5.73914 20.9586 6.11391 21.5058 6.54496 22.0223L21.9162 6.65114Z" fill="#B6B7BA"/>
<path fill-rule="evenodd" clip-rule="evenodd" d="M18.5574 4.74104C17.8298 4.48582 17.0803 4.31224 16.3227 4.21582L4.1096 16.4291C4.20617 17.1864 4.37945 17.936 4.63482 18.6636L18.5574 4.74104Z" fill="#B6B7BA"/>
<path fill-rule="evenodd" clip-rule="evenodd" d="M13.8501 4.17957C11.4282 4.42001 9.0713 5.46703 7.21608 7.32225C5.36085 9.17748 4.31369 11.5345 4.07324 13.9564L13.8501 4.17957Z" fill="#B6B7BA"/>
<path fill-rule="evenodd" clip-rule="evenodd" d="M25.7234 13.3816C25.6097 12.6386 25.4179 11.9058 25.1506 11.1946L11.0882 25.2568C11.7994 25.5241 12.5322 25.7161 13.2752 25.8297L25.7234 13.3816Z" fill="#B6B7BA"/>
<path fill-rule="evenodd" clip-rule="evenodd" d="M25.8228 15.7911L15.6849 25.929C18.2235 25.7553 20.7135 24.7011 22.6541 22.7604C24.5949 20.8196 25.649 18.3299 25.8228 15.7911Z" fill="#B6B7BA"/>
<path fill-rule="evenodd" clip-rule="evenodd" d="M13.7249 18.8576L14.3642 14.2626L18.3992 11.3585V8.57234L14.795 11.1656L15.534 5.85413H11.1242L10.178 14.4876L7.37012 16.5079V19.2962L9.84639 17.5141L9.31505 22.3628H13.7249H23.7437V18.8576H13.7249Z" fill="#F8F9F7"/>
<path fill-rule="evenodd" clip-rule="evenodd" d="M9.68951 22.0272H23.4082V19.1932H13.3392L14.0516 14.0742L18.0638 11.1866V9.22736L14.3546 11.896L15.1485 6.18975H11.4252L10.4955 14.6727L7.70578 16.68V18.6412L10.2622 16.8014L9.68951 22.0272ZM24.0792 22.6984H8.9407L9.43085 18.2269L7.03458 19.9512V16.336L9.8607 14.3026L10.8234 5.51855H15.9197L15.2352 10.4354L18.7349 7.91766V11.5303L14.6765 14.4511L14.1106 18.5221H24.0792V22.6984Z" fill="#3D3E3C"/>
</svg>
