<svg width="351" height="129" viewBox="0 0 351 129" fill="none" xmlns="http://www.w3.org/2000/svg">
<rect x="0.5" y="0.5" width="350" height="128" rx="15.5" stroke="#ECEEF2"/>
<rect opacity="0.1" x="5" y="5" width="341" height="48" rx="16" fill="#B3BAC5"/>
<path d="M67.256 22.848L64.104 31.072L60.952 22.848H58.52V34H60.216V25.2L63.288 33.04H64.92L67.992 25.2V34H69.688V22.848H67.256ZM75.7162 34.144C78.0842 34.144 79.6203 32.304 79.6203 30.048C79.6203 27.776 78.0842 25.968 75.7162 25.968C73.3322 25.968 71.8282 27.776 71.8282 30.048C71.8282 32.304 73.3322 34.144 75.7162 34.144ZM75.7162 32.72C74.1802 32.72 73.4602 31.504 73.4602 30.048C73.4602 28.576 74.1802 27.392 75.7162 27.392C77.2682 27.392 77.9883 28.576 77.9883 30.048C77.9883 31.504 77.2682 32.72 75.7162 32.72ZM81.5047 34H83.1207V30.672C83.1207 29.088 83.2967 27.392 85.0567 27.392C86.5287 27.392 86.6727 28.56 86.6727 29.376V34H88.3048V28.976C88.3048 27.024 87.2968 25.968 85.5528 25.968C84.5287 25.968 83.6487 26.352 83.1207 27.232V26.112H81.5047V34ZM93.832 34.144C95.144 34.144 96.12 33.712 97 32.752L95.864 31.76C95.272 32.432 94.632 32.672 93.848 32.672C92.488 32.672 91.736 31.856 91.672 30.576H97.208C97.24 30.336 97.256 30.08 97.256 29.856C97.256 27.792 96.136 25.968 93.704 25.968C91.192 25.968 90.04 27.968 90.04 30.096C90.04 32.256 91.224 34.144 93.832 34.144ZM91.688 29.408C91.672 28.352 92.36 27.328 93.688 27.328C94.872 27.328 95.576 28.064 95.688 29.072C95.704 29.184 95.704 29.312 95.688 29.408H91.688ZM99.1685 34H100.784V29.904C100.784 28.288 101.52 27.552 102.704 27.552C103.072 27.552 103.376 27.648 103.648 27.808L104.448 26.368C103.968 26.08 103.52 25.968 103.024 25.968C102.112 25.968 101.152 26.496 100.8 27.552V26.112H99.1685V34ZM108.497 34.144C110.865 34.144 112.401 32.304 112.401 30.048C112.401 27.776 110.865 25.968 108.497 25.968C106.113 25.968 104.609 27.776 104.609 30.048C104.609 32.304 106.113 34.144 108.497 34.144ZM108.497 32.72C106.961 32.72 106.241 31.504 106.241 30.048C106.241 28.576 106.961 27.392 108.497 27.392C110.049 27.392 110.769 28.576 110.769 30.048C110.769 31.504 110.049 32.72 108.497 32.72Z" fill="#183B56"/>
<path fill-rule="evenodd" clip-rule="evenodd" d="M46.9786 28.968C46.9786 35.5625 41.6328 40.9083 35.0383 40.9083C28.4438 40.9083 23.098 35.5625 23.098 28.968C23.098 22.3735 28.4438 17.0277 35.0383 17.0277C41.6328 17.0277 46.9786 22.3735 46.9786 28.968Z" fill="white"/>
<path fill-rule="evenodd" clip-rule="evenodd" d="M45.1987 35.2418C44.5511 36.2901 43.7445 37.2301 42.8136 38.0296C42.76 38.076 42.7064 38.1216 42.6517 38.1662C41.9972 38.7095 41.2826 39.183 40.5207 39.5767C40.3982 39.6415 40.2749 39.7031 40.1494 39.7608C38.6001 40.4975 36.8668 40.9084 35.0382 40.9084C33.1704 40.9084 31.4025 40.4793 29.8281 39.7133C29.746 39.6748 29.6651 39.6344 29.5843 39.5919C28.8213 39.2002 28.1058 38.7277 27.4491 38.1853C27.3753 38.1256 27.3023 38.064 27.2306 38.0022C26.3127 37.2089 25.5185 36.2779 24.8779 35.2418H29.8281V28.884L33.2898 32.3458L33.8037 32.8598L35.0606 34.1165L36.3163 32.8598L36.8313 32.3458L40.1494 29.0267V35.2418H45.1987Z" fill="#4C4C4C"/>
<path fill-rule="evenodd" clip-rule="evenodd" d="M46.9786 28.968C46.9786 30.3311 46.7499 31.6404 46.329 32.8597H42.8137V22.8208L40.1494 25.4851L35.0606 30.5749L27.2305 22.7448V32.8597H23.7476C23.3266 31.6404 23.098 30.3311 23.098 28.968C23.098 26.9918 23.5786 25.1279 24.4295 23.4856C24.8232 22.7237 25.2969 22.0092 25.8403 21.3545C26.2632 20.8436 26.7286 20.368 27.2305 19.9339C28.0138 19.2568 28.886 18.6792 29.828 18.2228C31.4026 17.4567 33.1703 17.0277 35.0383 17.0277C36.8667 17.0277 38.6002 17.4386 40.1494 18.1752C41.1156 18.6326 42.0112 19.2174 42.8137 19.9065C43.3357 20.3549 43.8195 20.8477 44.2556 21.3789C44.7979 22.0356 45.2705 22.7509 45.6621 23.5139C46.5039 25.1491 46.9786 27.0029 46.9786 28.968Z" fill="#FF6600"/>
<g clip-path="url(#clip0_1_11875)">
<path d="M229.52 34H232.656C236.368 34 238.448 31.984 238.448 28.512C238.448 24.88 236.432 22.848 232.672 22.848H229.52V34ZM231.216 32.432V24.4H232.656C235.52 24.4 236.736 25.632 236.736 28.448C236.736 31.312 235.12 32.432 232.496 32.432H231.216ZM243.508 25.968C242.052 25.968 240.931 26.56 240.067 27.632L241.251 28.624C241.843 27.824 242.595 27.392 243.476 27.392C244.531 27.392 245.172 27.984 245.172 29.04V29.312H243.14C242.276 29.312 241.539 29.424 240.963 29.68C240.259 30.032 239.827 30.624 239.827 31.632C239.827 33.264 241.171 34.144 242.628 34.144C243.603 34.144 244.628 33.728 245.172 32.8L245.299 34H246.804V29.04C246.804 26.976 245.411 25.968 243.508 25.968ZM242.884 32.752C241.955 32.752 241.444 32.32 241.444 31.648C241.444 31.264 241.603 31.008 241.859 30.848C242.211 30.592 242.772 30.528 243.347 30.528H245.172V30.784C245.011 31.856 244.212 32.752 242.884 32.752ZM251.593 34.144C253.097 34.144 254.569 33.344 254.569 31.6C254.569 28.672 250.377 29.552 250.377 28.096C250.377 27.632 250.841 27.264 251.593 27.264C252.505 27.264 253.001 27.776 253.305 28.352L254.569 27.648C253.993 26.592 252.969 25.968 251.657 25.968C250.137 25.968 248.809 26.736 248.809 28.336C248.809 31.12 252.969 30.08 252.969 31.68C252.969 32.24 252.505 32.784 251.513 32.784C250.409 32.784 249.865 32.064 249.625 31.392L248.313 31.984C248.713 33.184 249.961 34.144 251.593 34.144ZM256.587 34H258.219V30.672C258.219 29.088 258.395 27.392 260.155 27.392C261.627 27.392 261.771 28.56 261.771 29.376V34H263.403V28.976C263.403 27.024 262.395 25.968 260.651 25.968C259.627 25.968 258.747 26.352 258.219 27.232V22.848H256.587V34Z" fill="#183B56"/>
<path fill-rule="evenodd" clip-rule="evenodd" d="M217.898 28.968C217.898 35.5625 212.552 40.9083 205.958 40.9083C199.363 40.9083 194.017 35.5625 194.017 28.968C194.017 22.3735 199.363 17.0277 205.958 17.0277C212.552 17.0277 217.898 22.3735 217.898 28.968Z" fill="#0986D3"/>
<path fill-rule="evenodd" clip-rule="evenodd" d="M213.786 27.3355L212.089 32.2483C211.733 33.2802 210.761 33.974 209.67 33.974H199.281L200.081 31.3984H209.658L211.345 26.5146H201.597L202.397 23.9391H211.366C212.192 23.9391 212.971 24.3415 213.451 25.0143C213.93 25.6871 214.056 26.5547 213.786 27.3355Z" fill="white"/>
<path fill-rule="evenodd" clip-rule="evenodd" d="M205.689 27.6687V27.8313L204.94 30.2442H197.99L198.79 27.6687H205.689Z" fill="white"/>
</g>
<path d="M161.324 23.72L156.573 19.769C156.369 19.5995 156.341 19.2969 156.511 19.0931C156.68 18.8892 156.983 18.8614 157.187 19.0309L162.947 23.8214C163.064 23.9186 163.122 24.0575 163.12 24.1958L163.12 24.2C163.12 24.3783 163.023 24.5339 162.878 24.6167L157.188 29.3684C156.984 29.5384 156.681 29.5111 156.512 29.3076C156.342 29.1042 156.369 28.8015 156.572 28.6315L161.305 24.68H145.36C145.095 24.68 144.88 24.4651 144.88 24.2C144.88 23.9349 145.095 23.72 145.36 23.72H161.324Z" fill="#5A7184"/>
<path d="M146.695 34.28L151.428 38.2316C151.631 38.4015 151.658 38.7042 151.488 38.9077C151.319 39.1112 151.016 39.1384 150.812 38.9685L145.146 34.2369C144.967 34.1564 144.878 33.9753 144.88 33.7951C144.879 33.7288 144.892 33.6624 144.919 33.6006C144.951 33.523 145.003 33.4539 145.074 33.4037L150.813 28.631C151.017 28.4615 151.32 28.4893 151.489 28.6931C151.659 28.8969 151.631 29.1996 151.427 29.3691L146.676 33.32H162.64C163.28 33.32 163.28 34.28 162.64 34.28H146.695Z" fill="#5A7184"/>
<g clip-path="url(#clip1_1_11875)">
<path d="M91.13 97.162C93.56 97.162 95.666 95.812 95.666 93.346C95.666 91.816 94.784 90.7 93.092 90.286C94.37 89.8 95.018 88.828 95.018 87.658C95.018 85.57 93.164 84.292 91.094 84.292C88.934 84.292 87.152 85.642 87.152 87.928L88.952 88.036C88.97 86.794 89.834 86.038 91.112 86.038C92.282 86.038 93.182 86.686 93.182 87.874C93.182 89.098 92.552 89.692 90.554 89.692V91.168C92.03 91.15 93.848 91.294 93.848 93.202C93.848 94.678 92.624 95.416 91.148 95.416C89.528 95.416 88.358 94.552 88.358 93.004L86.558 93.112C86.558 95.794 88.61 97.162 91.13 97.162ZM102.076 88.45C101.374 88.45 100.6 88.63 99.8438 89.188L100.402 86.2H105.694V84.454H98.8898L97.7018 91.006L99.4658 91.456C99.9518 90.718 100.726 90.178 101.824 90.178C103.498 90.178 104.326 91.33 104.326 92.662C104.326 94.066 103.426 95.416 101.734 95.416C100.186 95.416 99.2858 94.318 99.1238 93.13L97.3238 93.436C97.6478 95.542 99.4118 97.162 101.752 97.162C104.38 97.162 106.252 95.056 106.252 92.662C106.252 90.376 104.542 88.45 102.076 88.45ZM107.928 84.454V86.2H114.66L109.08 97H111.186L116.946 85.462V84.454H107.928ZM123.031 84.454V85.318C123.031 86.11 122.581 86.434 121.771 86.434H119.953V87.892H122.959V97H124.795V84.454H123.031ZM136.533 92.284V84.454H134.895L128.685 92.914V94.03H134.697V97H136.533V94.03H138.549V92.284H136.533ZM131.133 92.284L134.697 87.28V92.284H131.133ZM142.943 95.272C145.319 93.832 148.055 91.078 148.055 88.054C148.055 85.768 146.471 84.31 144.203 84.31C141.485 84.31 139.991 86.434 139.991 88.774L141.791 88.9C141.845 87.424 142.475 86.074 144.203 86.074C145.589 86.074 146.237 86.938 146.237 88.18C146.237 91.258 142.331 93.922 139.865 95.434V97H148.613V95.272H142.943ZM154.843 97.162C157.165 97.162 159.325 95.92 159.325 93.364C159.325 91.924 158.605 90.754 157.327 90.178C158.173 89.62 158.695 88.702 158.695 87.622C158.695 85.552 156.877 84.292 154.843 84.292C152.863 84.292 150.973 85.516 150.973 87.604C150.973 88.702 151.513 89.602 152.341 90.178C151.063 90.754 150.343 91.924 150.343 93.364C150.343 95.92 152.521 97.162 154.843 97.162ZM154.843 89.656C153.637 89.656 152.809 88.954 152.809 87.748C152.809 86.704 153.691 86.038 154.843 86.038C156.031 86.038 156.877 86.74 156.877 87.766C156.877 88.954 156.049 89.656 154.843 89.656ZM154.843 95.416C153.367 95.416 152.161 94.678 152.161 93.238C152.161 91.762 153.259 90.916 154.843 90.916C156.391 90.916 157.507 91.762 157.507 93.238C157.507 94.678 156.319 95.416 154.843 95.416ZM162.099 97H163.953V94.786H162.099V97ZM172.603 88.81C171.955 88.612 171.289 88.558 170.623 88.684L173.305 84.454H171.199L167.455 90.574C167.041 91.258 166.771 92.014 166.771 92.878C166.771 95.236 168.787 97.162 171.235 97.162C173.683 97.162 175.699 95.236 175.699 92.86C175.699 90.934 174.367 89.332 172.603 88.81ZM171.235 95.416C169.795 95.416 168.643 94.264 168.643 92.86C168.643 91.474 169.795 90.322 171.235 90.322C172.675 90.322 173.827 91.474 173.827 92.86C173.827 94.264 172.675 95.416 171.235 95.416ZM181.73 97.162C184.16 97.162 186.266 95.812 186.266 93.346C186.266 91.816 185.384 90.7 183.692 90.286C184.97 89.8 185.618 88.828 185.618 87.658C185.618 85.57 183.764 84.292 181.694 84.292C179.534 84.292 177.752 85.642 177.752 87.928L179.552 88.036C179.57 86.794 180.434 86.038 181.712 86.038C182.882 86.038 183.782 86.686 183.782 87.874C183.782 89.098 183.152 89.692 181.154 89.692V91.168C182.63 91.15 184.448 91.294 184.448 93.202C184.448 94.678 183.224 95.416 181.748 95.416C180.128 95.416 178.958 94.552 178.958 93.004L177.158 93.112C177.158 95.794 179.21 97.162 181.73 97.162ZM192.424 97.162C194.746 97.162 196.906 95.92 196.906 93.364C196.906 91.924 196.186 90.754 194.908 90.178C195.754 89.62 196.276 88.702 196.276 87.622C196.276 85.552 194.458 84.292 192.424 84.292C190.444 84.292 188.554 85.516 188.554 87.604C188.554 88.702 189.094 89.602 189.922 90.178C188.644 90.754 187.924 91.924 187.924 93.364C187.924 95.92 190.102 97.162 192.424 97.162ZM192.424 89.656C191.218 89.656 190.39 88.954 190.39 87.748C190.39 86.704 191.272 86.038 192.424 86.038C193.612 86.038 194.458 86.74 194.458 87.766C194.458 88.954 193.63 89.656 192.424 89.656ZM192.424 95.416C190.948 95.416 189.742 94.678 189.742 93.238C189.742 91.762 190.84 90.916 192.424 90.916C193.972 90.916 195.088 91.762 195.088 93.238C195.088 94.678 193.9 95.416 192.424 95.416ZM205.926 92.284V84.454H204.288L198.078 92.914V94.03H204.09V97H205.926V94.03H207.942V92.284H205.926ZM200.526 92.284L204.09 87.28V92.284H200.526ZM216.53 92.284V84.454H214.892L208.682 92.914V94.03H214.694V97H216.53V94.03H218.546V92.284H216.53ZM211.13 92.284L214.694 87.28V92.284H211.13ZM224.218 84.292C221.77 84.292 219.772 86.218 219.772 88.594C219.772 90.52 221.104 92.122 222.85 92.644C223.498 92.86 224.182 92.896 224.848 92.77L222.148 97H224.254L227.998 90.88C228.412 90.196 228.7 89.44 228.7 88.576C228.7 86.218 226.666 84.292 224.218 84.292ZM224.218 91.132C222.778 91.132 221.626 89.98 221.626 88.594C221.626 87.19 222.778 86.038 224.218 86.038C225.676 86.038 226.81 87.19 226.81 88.594C226.81 89.98 225.658 91.132 224.218 91.132ZM234.912 97.162C238.098 97.162 238.998 93.958 238.998 90.754C238.998 87.514 238.062 84.274 234.786 84.274C231.168 84.274 230.664 87.946 230.664 90.736C230.664 93.49 231.204 97.162 234.912 97.162ZM234.858 95.416C232.734 95.416 232.554 92.986 232.554 90.736C232.554 88.414 232.734 86.02 234.786 86.02C236.802 86.02 237.018 88.324 237.018 90.718C237.018 93.022 236.82 95.416 234.858 95.416ZM245.66 88.45C244.958 88.45 244.184 88.63 243.428 89.188L243.986 86.2H249.278V84.454H242.474L241.286 91.006L243.05 91.456C243.536 90.718 244.31 90.178 245.408 90.178C247.082 90.178 247.91 91.33 247.91 92.662C247.91 94.066 247.01 95.416 245.318 95.416C243.77 95.416 242.87 94.318 242.708 93.13L240.908 93.436C241.232 95.542 242.996 97.162 245.336 97.162C247.964 97.162 249.836 95.056 249.836 92.662C249.836 90.376 248.126 88.45 245.66 88.45Z" fill="#183B56"/>
<path d="M33.458 97L30.038 91.24C31.73 90.826 32.63 89.71 32.63 87.91C32.63 85.732 31.226 84.454 28.49 84.454H24.962V97H26.168V91.42H27.968C28.274 91.42 28.562 91.42 28.832 91.402L32.054 97H33.458ZM26.168 90.286V85.57H28.382C30.308 85.57 31.406 86.308 31.406 87.928C31.406 89.566 30.326 90.286 28.382 90.286H26.168ZM38.8631 87.982C37.3151 87.982 36.1811 88.576 35.2631 89.8L36.1091 90.502C36.8471 89.494 37.7111 89.026 38.8451 89.026C40.3571 89.026 41.2031 89.872 41.2031 91.474V91.852H38.7551C37.6751 91.852 36.7931 92.014 36.1451 92.338C35.3891 92.734 34.9571 93.4 34.9571 94.426C34.9571 96.154 36.3071 97.144 37.9991 97.144C39.3311 97.144 40.5371 96.514 41.2031 95.2L41.2931 97H42.3731V91.474C42.3731 89.152 40.9871 87.982 38.8631 87.982ZM38.1791 96.118C36.8831 96.118 36.1271 95.47 36.1271 94.444C36.1271 93.868 36.3611 93.454 36.7931 93.184C37.2791 92.86 38.0171 92.752 38.8991 92.752H41.2031V93.67C40.7891 95.128 39.7631 96.118 38.1791 96.118ZM49.0221 95.938C48.6261 96.082 48.2661 96.154 47.9781 96.154C47.2761 96.154 46.8801 95.758 46.8801 94.858V89.062H49.0221V88.126H46.8801V84.724L45.7101 85.606V88.126H44.2341V89.062H45.7101V94.948C45.7101 96.478 46.5381 97.144 47.7081 97.144C48.1221 97.144 48.5721 97.054 49.0401 96.892L49.0221 95.938ZM54.7337 97.144C56.1557 97.144 57.1457 96.694 58.1537 95.65L57.3257 94.93C56.5337 95.776 55.7957 96.064 54.7337 96.064C52.9517 96.064 51.8717 94.858 51.8357 92.878H58.3697C58.4057 92.662 58.4237 92.356 58.4237 92.104C58.4237 90.106 57.3077 87.982 54.5897 87.982C52.0337 87.982 50.6657 90.088 50.6657 92.608C50.6657 95.146 52.0517 97.144 54.7337 97.144ZM51.8357 92.032C51.8717 90.34 52.8977 88.972 54.5717 88.972C56.4077 88.972 57.2177 90.304 57.2897 91.582C57.2897 91.708 57.2897 91.888 57.2717 92.032H51.8357ZM61.5996 90.484H62.8776V88.522H61.5996V90.484ZM61.5996 97H62.8776V95.038H61.5996V97Z" fill="#183B56"/>
</g>
<defs>
<clipPath id="clip0_1_11875">
<rect width="71" height="24" fill="white" transform="translate(194 17)"/>
</clipPath>
<clipPath id="clip1_1_11875">
<rect width="228" height="24" fill="white" transform="translate(23 79)"/>
</clipPath>
</defs>
</svg>
