<svg width="351" height="129" viewBox="0 0 351 129" fill="none" xmlns="http://www.w3.org/2000/svg">
<rect x="0.5" y="0.5" width="350" height="128" rx="15.5" stroke="#ECEEF2"/>
<rect opacity="0.1" x="5" y="5" width="341" height="48" rx="16" fill="#B3BAC5"/>
<g clip-path="url(#clip0_1_11841)">
<path d="M58.52 34H65.096V32.432H60.216V22.848H58.52V34ZM66.6874 24.576H68.3994V22.848H66.6874V24.576ZM66.7354 34H68.3514V26.112H66.7354V34ZM74.8142 27.408V26.112H72.8622V22.928L71.2302 24.144V26.112H69.9502V27.408H71.2302V31.92C71.2302 33.488 72.2222 34.144 73.4542 34.144C73.9022 34.144 74.3502 34.064 74.8142 33.92V32.608C74.4622 32.72 74.1262 32.784 73.8542 32.784C73.2302 32.784 72.8622 32.48 72.8622 31.792V27.408H74.8142ZM79.8007 34.144C81.1127 34.144 82.0887 33.712 82.9688 32.752L81.8327 31.76C81.2407 32.432 80.6007 32.672 79.8167 32.672C78.4567 32.672 77.7047 31.856 77.6407 30.576H83.1767C83.2087 30.336 83.2248 30.08 83.2248 29.856C83.2248 27.792 82.1047 25.968 79.6727 25.968C77.1607 25.968 76.0087 27.968 76.0087 30.096C76.0087 32.256 77.1927 34.144 79.8007 34.144ZM77.6567 29.408C77.6407 28.352 78.3287 27.328 79.6567 27.328C80.8407 27.328 81.5447 28.064 81.6567 29.072C81.6727 29.184 81.6727 29.312 81.6567 29.408H77.6567ZM88.1932 34.144C89.7292 34.144 90.9132 33.312 91.4252 31.872L89.9372 31.296C89.6972 32.176 89.0252 32.72 88.1772 32.72C86.7052 32.72 86.1292 31.456 86.1292 30.08C86.1292 28.704 86.7212 27.392 88.1772 27.392C89.0252 27.392 89.6972 27.952 89.9532 28.848L91.5052 28.224C90.8972 26.72 89.6972 25.968 88.1772 25.968C85.6652 25.968 84.4652 28 84.4652 30.08C84.4652 32.208 85.7132 34.144 88.1932 34.144ZM96.3406 34.144C98.7086 34.144 100.245 32.304 100.245 30.048C100.245 27.776 98.7086 25.968 96.3406 25.968C93.9566 25.968 92.4526 27.776 92.4526 30.048C92.4526 32.304 93.9566 34.144 96.3406 34.144ZM96.3406 32.72C94.8046 32.72 94.0846 31.504 94.0846 30.048C94.0846 28.576 94.8046 27.392 96.3406 27.392C97.8926 27.392 98.6126 28.576 98.6126 30.048C98.6126 31.504 97.8926 32.72 96.3406 32.72ZM102.081 24.576H103.793V22.848H102.081V24.576ZM102.129 34H103.745V26.112H102.129V34ZM106.336 34H107.952V30.672C107.952 29.088 108.128 27.392 109.888 27.392C111.36 27.392 111.504 28.56 111.504 29.376V34H113.136V28.976C113.136 27.024 112.128 25.968 110.384 25.968C109.36 25.968 108.48 26.352 107.952 27.232V26.112H106.336V34Z" fill="#183B56"/>
<path fill-rule="evenodd" clip-rule="evenodd" d="M34.948 17.0928C28.3535 17.0928 23.0078 22.4386 23.0078 29.0331C23.0078 35.6276 28.3535 40.9734 34.948 40.9734C41.5426 40.9734 46.8883 35.6276 46.8883 29.0331C46.8883 22.4386 41.5426 17.0928 34.948 17.0928Z" fill="#3D3E3C"/>
<path fill-rule="evenodd" clip-rule="evenodd" d="M34.9481 18.0878C40.9833 18.0878 45.8934 22.9979 45.8934 29.0331C45.8934 35.0682 40.9833 39.9783 34.9481 39.9783C28.9128 39.9783 24.0027 35.0682 24.0027 29.0331C24.0027 22.9979 28.9128 18.0878 34.9481 18.0878Z" fill="white"/>
<path fill-rule="evenodd" clip-rule="evenodd" d="M42.4726 24.5963C42.208 24.1481 41.8976 23.72 41.5459 23.3151L29.2301 35.6309C29.635 35.9824 30.0632 36.293 30.5113 36.5576L42.4726 24.5963Z" fill="#B6B7BA"/>
<path fill-rule="evenodd" clip-rule="evenodd" d="M40.5329 22.3209C40.1197 21.9762 39.6818 21.6763 39.2261 21.42L27.335 33.311C27.5913 33.7668 27.8911 34.2046 28.236 34.6178L40.5329 22.3209Z" fill="#B6B7BA"/>
<path fill-rule="evenodd" clip-rule="evenodd" d="M37.8459 20.7929C37.2638 20.5887 36.6643 20.4498 36.0582 20.3727L26.2877 30.1433C26.365 30.7492 26.5036 31.3488 26.7079 31.9309L37.8459 20.7929Z" fill="#B6B7BA"/>
<path fill-rule="evenodd" clip-rule="evenodd" d="M34.0801 20.3436C32.1425 20.536 30.2571 21.3736 28.7729 22.8578C27.2887 24.342 26.451 26.2276 26.2586 28.1651L34.0801 20.3436Z" fill="#B6B7BA"/>
<path fill-rule="evenodd" clip-rule="evenodd" d="M43.5788 27.7052C43.4878 27.1109 43.3344 26.5246 43.1205 25.9556L31.8706 37.2054C32.4396 37.4193 33.0258 37.5728 33.6202 37.6637L43.5788 27.7052Z" fill="#B6B7BA"/>
<path fill-rule="evenodd" clip-rule="evenodd" d="M43.6582 29.6329L35.5479 37.7432C37.5788 37.6042 39.5708 36.7609 41.1233 35.2083C42.6759 33.6557 43.5193 31.6639 43.6582 29.6329Z" fill="#B6B7BA"/>
<path fill-rule="evenodd" clip-rule="evenodd" d="M33.9799 32.086L34.4913 28.4101L37.7194 26.0868V23.8579L34.8361 25.9325L35.4272 21.6833H31.8993L31.1424 28.59L28.8961 30.2063V32.437L30.8771 31.0113L30.4521 34.8902H33.9799H41.995V32.086H33.9799Z" fill="#F8F9F7"/>
<path fill-rule="evenodd" clip-rule="evenodd" d="M30.7516 34.6217H41.7266V32.3545H33.6714L34.2413 28.2593L37.4511 25.9492V24.3818L34.4837 26.5168L35.1188 21.9518H32.1402L31.3964 28.7381L29.1646 30.344V31.9129L31.2098 30.4411L30.7516 34.6217ZM42.2634 35.1587H30.1526L30.5447 31.5815L28.6277 32.9609V30.0688L30.8886 28.442L31.6587 21.4148H35.7357L35.1882 25.3483L37.9879 23.3341V26.2242L34.7412 28.5608L34.2885 31.8177H42.2634V35.1587Z" fill="#3D3E3C"/>
</g>
<g clip-path="url(#clip1_1_11841)">
<path d="M230.52 34H234.68C236.968 34 238.28 32.816 238.28 30.784C238.28 29.568 237.8 28.464 236.376 28.016C237.112 27.632 237.704 26.832 237.704 25.648C237.704 23.872 236.44 22.848 234.248 22.848H230.52V34ZM232.216 27.472V24.4H234.248C235.368 24.4 236.008 24.944 236.008 25.968C236.008 26.928 235.4 27.472 234.328 27.472H232.216ZM232.216 32.432V28.944H234.664C235.32 28.944 236.6 29.104 236.6 30.624C236.6 31.808 235.848 32.432 234.552 32.432H232.216ZM243.557 34.144C245.093 34.144 246.277 33.312 246.789 31.872L245.301 31.296C245.061 32.176 244.389 32.72 243.541 32.72C242.069 32.72 241.493 31.456 241.493 30.08C241.493 28.704 242.085 27.392 243.541 27.392C244.389 27.392 245.061 27.952 245.317 28.848L246.869 28.224C246.261 26.72 245.061 25.968 243.541 25.968C241.029 25.968 239.829 28 239.829 30.08C239.829 32.208 241.077 34.144 243.557 34.144ZM255.655 22.848V30.976L250.662 22.848H248.902V34H250.598V25.856L255.559 34H257.335V22.848H255.655ZM263.316 34.144C264.628 34.144 265.604 33.712 266.484 32.752L265.348 31.76C264.756 32.432 264.116 32.672 263.332 32.672C261.972 32.672 261.22 31.856 261.156 30.576H266.692C266.724 30.336 266.74 30.08 266.74 29.856C266.74 27.792 265.62 25.968 263.188 25.968C260.676 25.968 259.524 27.968 259.524 30.096C259.524 32.256 260.708 34.144 263.316 34.144ZM261.172 29.408C261.156 28.352 261.844 27.328 263.172 27.328C264.356 27.328 265.06 28.064 265.172 29.072C265.188 29.184 265.188 29.312 265.172 29.408H261.172ZM267.581 34H269.581L271.437 31.152L273.293 34H275.293L272.509 30.032L275.293 26.112H273.293L271.437 28.912L269.581 26.112H267.581L270.349 30.032L267.581 34ZM280.81 27.408V26.112H278.858V22.928L277.226 24.144V26.112H275.946V27.408H277.226V31.92C277.226 33.488 278.218 34.144 279.45 34.144C279.898 34.144 280.346 34.064 280.81 33.92V32.608C280.458 32.72 280.122 32.784 279.85 32.784C279.226 32.784 278.858 32.48 278.858 31.792V27.408H280.81Z" fill="#183B56"/>
<path fill-rule="evenodd" clip-rule="evenodd" d="M218.984 29.004C218.984 35.5985 213.638 40.9443 207.043 40.9443C200.449 40.9443 195.103 35.5985 195.103 29.004C195.103 22.4095 200.449 17.0637 207.043 17.0637C213.638 17.0637 218.984 22.4095 218.984 29.004Z" fill="#008EBD"/>
<path fill-rule="evenodd" clip-rule="evenodd" d="M211.911 29.6163H210.172L206.545 27.2071C206.52 27.191 206.495 27.1797 206.469 27.1673C206.466 27.1655 206.463 27.1637 206.459 27.162C206.446 27.1558 206.433 27.1484 206.42 27.1431C206.339 27.1068 206.249 27.0863 206.154 27.0863H205.132C204.772 27.0863 204.479 27.3785 204.479 27.739C204.479 28.0993 204.772 28.3916 205.132 28.3916H205.969L209.609 30.8099C209.732 30.8911 209.871 30.9234 210.007 30.9157C210.035 30.9193 210.063 30.9218 210.091 30.9218H211.911C212.272 30.9218 212.564 30.6295 212.564 30.269C212.564 29.9085 212.272 29.6163 211.911 29.6163Z" fill="white"/>
<path fill-rule="evenodd" clip-rule="evenodd" d="M206.36 29.6163H205.29L201.733 27.2542C201.618 27.1501 201.465 27.0863 201.298 27.0863H200.275C199.915 27.0863 199.622 27.3785 199.622 27.739C199.622 28.0993 199.915 28.3916 200.275 28.3916H201.087L204.643 30.754C204.759 30.8579 204.911 30.9218 205.079 30.9218H206.36C206.72 30.9218 207.012 30.6295 207.012 30.269C207.012 29.9085 206.72 29.6163 206.36 29.6163Z" fill="white"/>
<path fill-rule="evenodd" clip-rule="evenodd" d="M214.386 27.4278C214.275 27.2243 214.06 27.0862 213.812 27.0862H210.11C209.75 27.0862 209.458 27.3784 209.458 27.7388C209.458 28.0993 209.75 28.3915 210.11 28.3915H213.159V28.9375C213.159 29.298 213.451 29.5902 213.812 29.5902C214.172 29.5902 214.464 29.298 214.464 28.9375V27.7388C214.464 27.6262 214.436 27.5202 214.386 27.4278Z" fill="white"/>
<path fill-rule="evenodd" clip-rule="evenodd" d="M201.395 29.6163H200.275C199.915 29.6163 199.622 29.9085 199.622 30.269C199.622 30.6295 199.915 30.9218 200.275 30.9218H201.395C201.755 30.9218 202.048 30.6295 202.048 30.269C202.048 29.9085 201.755 29.6163 201.395 29.6163Z" fill="white"/>
</g>
<path d="M162.324 23.72L157.573 19.769C157.369 19.5995 157.341 19.2969 157.511 19.0931C157.68 18.8892 157.983 18.8614 158.187 19.0309L163.947 23.8214C164.064 23.9186 164.122 24.0575 164.12 24.1958L164.12 24.2C164.12 24.3783 164.023 24.5339 163.878 24.6167L158.188 29.3684C157.984 29.5384 157.681 29.5111 157.512 29.3076C157.342 29.1042 157.369 28.8015 157.572 28.6315L162.305 24.68H146.36C146.095 24.68 145.88 24.4651 145.88 24.2C145.88 23.9349 146.095 23.72 146.36 23.72H162.324Z" fill="#5A7184"/>
<path d="M147.695 34.28L152.428 38.2316C152.631 38.4015 152.658 38.7042 152.488 38.9077C152.319 39.1112 152.016 39.1384 151.812 38.9685L146.146 34.2369C145.967 34.1564 145.878 33.9753 145.88 33.7951C145.879 33.7288 145.892 33.6624 145.919 33.6006C145.951 33.523 146.003 33.4539 146.074 33.4037L151.813 28.631C152.017 28.4615 152.32 28.4893 152.489 28.6931C152.659 28.8969 152.631 29.1996 152.427 29.3691L147.676 33.32H163.64C164.28 33.32 164.28 34.28 163.64 34.28H147.695Z" fill="#5A7184"/>
<g clip-path="url(#clip2_1_11841)">
<path d="M91.31 97.162C94.496 97.162 95.396 93.958 95.396 90.754C95.396 87.514 94.46 84.274 91.184 84.274C87.566 84.274 87.062 87.946 87.062 90.736C87.062 93.49 87.602 97.162 91.31 97.162ZM91.256 95.416C89.132 95.416 88.952 92.986 88.952 90.736C88.952 88.414 89.132 86.02 91.184 86.02C93.2 86.02 93.416 88.324 93.416 90.718C93.416 93.022 93.218 95.416 91.256 95.416ZM98.4758 97H100.33V94.786H98.4758V97ZM107.594 97.162C109.916 97.162 112.076 95.92 112.076 93.364C112.076 91.924 111.356 90.754 110.078 90.178C110.924 89.62 111.446 88.702 111.446 87.622C111.446 85.552 109.628 84.292 107.594 84.292C105.614 84.292 103.724 85.516 103.724 87.604C103.724 88.702 104.264 89.602 105.092 90.178C103.814 90.754 103.094 91.924 103.094 93.364C103.094 95.92 105.272 97.162 107.594 97.162ZM107.594 89.656C106.388 89.656 105.56 88.954 105.56 87.748C105.56 86.704 106.442 86.038 107.594 86.038C108.782 86.038 109.628 86.74 109.628 87.766C109.628 88.954 108.8 89.656 107.594 89.656ZM107.594 95.416C106.118 95.416 104.912 94.678 104.912 93.238C104.912 91.762 106.01 90.916 107.594 90.916C109.142 90.916 110.258 91.762 110.258 93.238C110.258 94.678 109.07 95.416 107.594 95.416ZM116.902 95.272C119.278 93.832 122.014 91.078 122.014 88.054C122.014 85.768 120.43 84.31 118.162 84.31C115.444 84.31 113.95 86.434 113.95 88.774L115.75 88.9C115.804 87.424 116.434 86.074 118.162 86.074C119.548 86.074 120.196 86.938 120.196 88.18C120.196 91.258 116.29 93.922 113.824 95.434V97H122.572V95.272H116.902ZM124.301 84.454V86.2H131.033L125.453 97H127.559L133.319 85.462V84.454H124.301ZM134.905 84.454V86.2H141.637L136.057 97H138.163L143.923 85.462V84.454H134.905ZM145.509 84.454V86.2H152.241L146.661 97H148.767L154.527 85.462V84.454H145.509ZM160.865 88.45C160.163 88.45 159.389 88.63 158.633 89.188L159.191 86.2H164.483V84.454H157.679L156.491 91.006L158.255 91.456C158.741 90.718 159.515 90.178 160.613 90.178C162.287 90.178 163.115 91.33 163.115 92.662C163.115 94.066 162.215 95.416 160.523 95.416C158.975 95.416 158.075 94.318 157.913 93.13L156.113 93.436C156.437 95.542 158.201 97.162 160.541 97.162C163.169 97.162 165.041 95.056 165.041 92.662C165.041 90.376 163.331 88.45 160.865 88.45ZM171.217 84.454V85.318C171.217 86.11 170.767 86.434 169.957 86.434H168.139V87.892H171.145V97H172.981V84.454H171.217ZM183.224 88.81C182.576 88.612 181.91 88.558 181.244 88.684L183.926 84.454H181.82L178.076 90.574C177.662 91.258 177.392 92.014 177.392 92.878C177.392 95.236 179.408 97.162 181.856 97.162C184.304 97.162 186.32 95.236 186.32 92.86C186.32 90.934 184.988 89.332 183.224 88.81ZM181.856 95.416C180.416 95.416 179.264 94.264 179.264 92.86C179.264 91.474 180.416 90.322 181.856 90.322C183.296 90.322 184.448 91.474 184.448 92.86C184.448 94.264 183.296 95.416 181.856 95.416Z" fill="#183B56"/>
<path d="M33.458 97L30.038 91.24C31.73 90.826 32.63 89.71 32.63 87.91C32.63 85.732 31.226 84.454 28.49 84.454H24.962V97H26.168V91.42H27.968C28.274 91.42 28.562 91.42 28.832 91.402L32.054 97H33.458ZM26.168 90.286V85.57H28.382C30.308 85.57 31.406 86.308 31.406 87.928C31.406 89.566 30.326 90.286 28.382 90.286H26.168ZM38.8631 87.982C37.3151 87.982 36.1811 88.576 35.2631 89.8L36.1091 90.502C36.8471 89.494 37.7111 89.026 38.8451 89.026C40.3571 89.026 41.2031 89.872 41.2031 91.474V91.852H38.7551C37.6751 91.852 36.7931 92.014 36.1451 92.338C35.3891 92.734 34.9571 93.4 34.9571 94.426C34.9571 96.154 36.3071 97.144 37.9991 97.144C39.3311 97.144 40.5371 96.514 41.2031 95.2L41.2931 97H42.3731V91.474C42.3731 89.152 40.9871 87.982 38.8631 87.982ZM38.1791 96.118C36.8831 96.118 36.1271 95.47 36.1271 94.444C36.1271 93.868 36.3611 93.454 36.7931 93.184C37.2791 92.86 38.0171 92.752 38.8991 92.752H41.2031V93.67C40.7891 95.128 39.7631 96.118 38.1791 96.118ZM49.0221 95.938C48.6261 96.082 48.2661 96.154 47.9781 96.154C47.2761 96.154 46.8801 95.758 46.8801 94.858V89.062H49.0221V88.126H46.8801V84.724L45.7101 85.606V88.126H44.2341V89.062H45.7101V94.948C45.7101 96.478 46.5381 97.144 47.7081 97.144C48.1221 97.144 48.5721 97.054 49.0401 96.892L49.0221 95.938ZM54.7337 97.144C56.1557 97.144 57.1457 96.694 58.1537 95.65L57.3257 94.93C56.5337 95.776 55.7957 96.064 54.7337 96.064C52.9517 96.064 51.8717 94.858 51.8357 92.878H58.3697C58.4057 92.662 58.4237 92.356 58.4237 92.104C58.4237 90.106 57.3077 87.982 54.5897 87.982C52.0337 87.982 50.6657 90.088 50.6657 92.608C50.6657 95.146 52.0517 97.144 54.7337 97.144ZM51.8357 92.032C51.8717 90.34 52.8977 88.972 54.5717 88.972C56.4077 88.972 57.2177 90.304 57.2897 91.582C57.2897 91.708 57.2897 91.888 57.2717 92.032H51.8357ZM61.5996 90.484H62.8776V88.522H61.5996V90.484ZM61.5996 97H62.8776V95.038H61.5996V97Z" fill="#183B56"/>
</g>
<defs>
<clipPath id="clip0_1_11841">
<rect width="92" height="24" fill="white" transform="translate(23 17)"/>
</clipPath>
<clipPath id="clip1_1_11841">
<rect width="87" height="24" fill="white" transform="translate(195 17)"/>
</clipPath>
<clipPath id="clip2_1_11841">
<rect width="165" height="24" fill="white" transform="translate(23 79)"/>
</clipPath>
</defs>
</svg>
